<?xml version="1.0" encoding="UTF-8" standalone="no"?>
<!-- Created with Inkscape (http://www.inkscape.org/) -->

<svg
   version="1.1"
   id="svg2"
   width="2666.6667"
   height="2666.6667"
   viewBox="0 0 2666.6667 2666.6667"
   sodipodi:docname="WIZARD.svg"
   inkscape:version="1.2.2 (732a01da63, 2022-12-09)"
   xmlns:inkscape="http://www.inkscape.org/namespaces/inkscape"
   xmlns:sodipodi="http://sodipodi.sourceforge.net/DTD/sodipodi-0.dtd"
   xmlns="http://www.w3.org/2000/svg"
   xmlns:svg="http://www.w3.org/2000/svg">
  <defs
     id="defs6">
    <filter
       inkscape:collect="always"
       style="color-interpolation-filters:sRGB"
       id="filter3388"
       x="-0.024780755"
       y="-0.022557265"
       width="1.0495615"
       height="1.0451145">
      <feGaussianBlur
         inkscape:collect="always"
         stdDeviation="4.992124"
         id="feGaussianBlur3390" />
    </filter>
  </defs>
  <sodipodi:namedview
     id="namedview4"
     pagecolor="#ffffff"
     bordercolor="#000000"
     borderopacity="0.25"
     inkscape:showpageshadow="2"
     inkscape:pageopacity="0.0"
     inkscape:pagecheckerboard="0"
     inkscape:deskcolor="#d1d1d1"
     showgrid="false"
     inkscape:zoom="0.19256249"
     inkscape:cx="2970.4643"
     inkscape:cy="1090.5551"
     inkscape:window-width="3440"
     inkscape:window-height="1334"
     inkscape:window-x="-11"
     inkscape:window-y="-11"
     inkscape:window-maximized="1"
     inkscape:current-layer="g10">
    <inkscape:page
       x="0"
       y="0"
       id="page8"
       width="2666.6667"
       height="2666.6667" />
  </sodipodi:namedview>
  <g
     id="g10"
     inkscape:groupmode="layer"
     inkscape:label="Page 1"
     transform="matrix(1.3333333,0,0,-1.3333333,0,2666.6667)">
    <path
       d="M -2296.0079,2681.5969 H -296.00792 V 681.59693 H -2296.0079 V 2681.5969"
       style="fill:#ffffff;fill-opacity:1;fill-rule:nonzero;stroke:none;stroke-width:0.1"
       id="path14" />
    <path
       d="m 950.25,720.19 3.12,-20.76 c -34.5,21.17 -74.69,51.75 -96.93,94.52 -52.82,41.93 -63.51,108.59 -52.38,171.79 -59.11,-6.57 -103.65,38.7 -145.95,72.88 23.52,-8.52 60.83,-13.41 81.09,-11.46 -112.29,111.67 -51.24,207.35 78.32,256.23 3.08,22.7 5.93,28.93 28.45,43.42 0.36,10.18 0.96,20.39 1.85,30.6 l -20.31,-39.99 c 4.72,77.83 4.2,164.79 47.85,232.22 61.73,95.37 164.55,72.65 225.12,-12.66 43.63,-61.45 60.63,-142.37 62.66,-216.94 16.96,-13.41 16.88,-18.51 19.34,-36.65 123.75,-46.76 194.1,-141.09 78.32,-256.23 20.82,-2.03 55.94,2.22 81.09,11.46 -38.37,-38.94 -86.84,-79.45 -145.95,-72.88 11.13,-63.2 0.44,-129.86 -52.38,-171.79 -22.24,-42.77 -59.17,-72.98 -96.93,-94.52 l 3.12,20.76 C 1034,706.36 1017.97,696.28 1000,685.9 c -17.97,10.38 -34,20.46 -49.75,34.29 v 0"
       style="fill:#fdfefd;fill-opacity:1;fill-rule:nonzero;stroke:none;stroke-width:0.1"
       id="path18" />
    <path
       d="m 1387.81,609.36 -9.64,-110.05 c 38.73,0 53.71,26.48 53.71,61.9 0,21.38 -11.4,50.11 -38.05,50.11 z m -71.16,-147.38 c -2.66,0.5 -3.03,3.96 -2.05,5.76 l 15.04,28.73 8.44,110.22 c -3.89,-0.81 -25.38,-6.68 -27.36,-3.18 l 0.08,4.89 c 7.58,7.01 31.55,30.59 38.59,34.58 10.17,5.76 28.07,5.43 41.31,5.43 31.44,0 54.58,-6.87 76.09,-27.52 13.85,-13.3 19.21,-29.69 19.21,-49.08 0,-82 -77.49,-109.83 -147.09,-109.83 z m -109.75,99.1 c 16.45,0 37.79,18.19 37.79,35.58 0,16.05 -14.79,19.63 -28.02,17.17 -1.8,-0.34 -3.43,-0.59 -4.89,-0.75 z m -7.48,-82.98 c -0.55,-5.04 -4.72,-4.77 -16.91,-9.15 -4.45,-1.6 -23.9,-9.23 -27.61,-9.23 -5.87,0 -4.51,6.18 -3.97,13.91 l 2.88,34.33 5.98,83.9 c 1.31,16.81 3.3,15.87 -2.68,14.74 -3.97,-0.75 -19.35,-4.46 -22.34,-3.17 l -0.67,1.75 19.84,34.67 c 40.14,8.62 138.36,25.28 138.36,-39.05 0,-21.47 -17.89,-37.68 -35.58,-46.28 -2.3,-1.12 -3.84,-1.83 -4.68,-2.13 l 36.71,-62.06 c 4.07,-4.64 15.29,-0.98 15.29,-4.51 0,-3.04 -32.92,-16.84 -37.51,-19.08 -13.66,-6.69 -17.54,-12.27 -24.64,2.29 l -36.46,76.85 z m -151.85,109.04 -15.16,-46.94 -2.47,-8.35 c 0,-0.46 -0.04,-0.8 -0.12,-0.96 h 29.36 c -4.66,21.04 -8.35,33.25 -11.61,56.25 z m -82.48,-110 9.81,23.84 c -5.57,8.44 -12.74,20.65 -12.74,30.95 l 25.81,1.21 c 7.41,19.43 14.95,36.11 21.68,56.17 2.6,7.76 17.47,47.28 20.84,50.37 4.65,4.27 32.78,12.17 39.05,8.81 1.17,-0.62 1.96,-1.79 2.38,-3.59 3.92,-10.06 8.1,-21.01 12.53,-32.87 8.83,-23.56 17.85,-55.58 26.39,-81.06 2.54,-7.57 14.79,-45.98 17.96,-50.78 4.25,-6.45 5.77,-2.15 -32.41,-15.79 -19.12,-6.83 -15.71,-4.92 -19.96,6.43 l -4.68,13.45 c -3.41,10.77 2.19,11.42 -25.27,10.65 l -30.23,0.37 c -1.65,-4.58 -12.25,-32.74 -14.37,-34.2 l -2.76,-0.5 c -0.03,0.02 -20.61,7.73 -34.03,16.54 z m -135.9,-8.9 c -5.55,0 -9.56,3.31 -8.23,8.31 l 63.77,111.76 c 0.65,2.44 -61.36,1.71 -64.73,1.71 -2.22,0 -3.82,2.01 -3.05,4.05 l 15.79,37.88 c 3.1,7.64 14.01,8.44 21.13,8.44 34.87,0 69.36,-3.43 104.16,-3.43 v -5.01 L 898.31,519.99 c 0,-1.74 1.67,-1.72 3.42,-1.72 10.87,0 28.13,-0.49 38.42,0.92 3,0.41 14.26,2.01 16.88,0 0.83,-0.62 1.21,-1.38 1.21,-2.25 0,0.08 -0.09,-0.3 -0.21,-1.13 l -19.71,-39.22 c -3.9,-9.28 -18.85,-8.6 -27.53,-8.6 z m -89.88,-4.01 12.11,165.18 c 0.25,4.49 -0.06,7.55 3.55,8.35 l 45.69,10.65 c 5.13,0 2.28,-10.44 1.59,-19.46 l -1.96,-35.29 -10.48,-120.28 c -0.96,-3.26 -24.7,-8.26 -27.69,-9.15 -7.64,-2.27 -22.81,-8.94 -22.81,0 z m -49.99,169.98 c 0.95,3.32 1.35,4.86 4.64,5.64 l 37.33,8.56 c 3.3,0 3.33,-4.95 2.8,-6.22 L 683.43,488.25 c -7.23,-20.21 -8.2,-16.74 -30.57,-27.28 -4.52,-2.13 -6.61,-0.61 -7.97,3.76 l -20.93,74.47 -26.14,-53.92 c -1.34,-2.92 -31.6,-35.57 -35.5,-21.76 L 514,634.58 c 0,11.98 20.73,11.34 31.91,12.58 10.27,1.13 16.99,3.73 19.08,-3.51 l 25.23,-97.1 20.92,35.96 -9.06,41.26 c 0.29,7.05 7.49,8.07 15.37,9.27 3.89,0.59 25.58,4.74 29.15,1.84 0.92,-0.71 1.59,-1.92 1.96,-3.55 l 16.66,-75.39 24.1,78.27 v 0"
       style="fill:#300c50;fill-opacity:1;fill-rule:nonzero;stroke:none;stroke-width:0.1"
       id="path122" />
    <path
       d="m 1048.09,388.81 c -2.81,0 -5.32,0.53 -7.54,1.58 -2.21,1.05 -4.08,2.47 -5.61,4.27 -1.53,1.79 -2.7,3.87 -3.52,6.22 -0.82,2.36 -1.22,4.86 -1.22,7.48 0,2.96 0.41,5.67 1.25,8.16 0.83,2.49 2,4.69 3.5,6.62 1.51,1.93 3.29,3.55 5.36,4.87 2.07,1.33 4.35,2.31 6.82,2.95 0.23,0 0.41,0.18 0.53,0.53 0.12,0.36 0.22,0.75 0.32,1.19 0.09,0.43 0.21,0.82 0.34,1.18 0.13,0.35 0.32,0.54 0.56,0.54 3.64,-0.38 6.92,-1.02 9.82,-1.94 2.91,-0.9 5.38,-2.21 7.41,-3.89 2.02,-1.69 3.58,-3.83 4.65,-6.42 1.08,-2.57 1.62,-5.73 1.62,-9.45 0,-2.39 -0.29,-4.63 -0.88,-6.73 -0.57,-2.11 -1.39,-4.04 -2.44,-5.82 -1.06,-1.77 -2.32,-3.36 -3.79,-4.76 -1.47,-1.4 -3.11,-2.59 -4.91,-3.56 -1.8,-0.98 -3.74,-1.73 -5.81,-2.24 -2.07,-0.52 -4.22,-0.78 -6.46,-0.78 z m -5.49,20.71 c 0,-1.36 0.15,-2.72 0.44,-4.08 0.29,-1.36 0.77,-2.59 1.45,-3.67 0.67,-1.09 1.56,-1.98 2.67,-2.66 1.11,-0.67 2.47,-1.01 4.11,-1.01 1.25,0.08 2.35,0.34 3.3,0.78 0.95,0.43 1.77,1.01 2.45,1.71 0.68,0.71 1.25,1.52 1.7,2.43 0.45,0.91 0.81,1.87 1.07,2.87 0.26,1.01 0.44,2.04 0.55,3.09 0.1,1.05 0.15,2.07 0.15,3.04 0,1.33 -0.18,2.62 -0.54,3.87 -0.35,1.25 -0.88,2.36 -1.59,3.31 -0.72,0.96 -1.6,1.73 -2.67,2.32 -1.06,0.58 -2.29,0.86 -3.69,0.86 -1.11,0 -2.11,-0.2 -3,-0.61 -0.89,-0.41 -1.69,-0.96 -2.38,-1.64 -0.69,-0.7 -1.29,-1.49 -1.78,-2.37 -0.5,-0.9 -0.91,-1.82 -1.24,-2.77 -0.32,-0.94 -0.57,-1.9 -0.73,-2.85 -0.16,-0.94 -0.25,-1.82 -0.27,-2.62 z m -77.57,-1.06 c 0,2.15 0.25,4.23 0.75,6.2 0.5,1.98 1.2,3.84 2.13,5.55 0.92,1.72 2.04,3.28 3.34,4.67 1.31,1.4 2.77,2.6 4.39,3.61 1.61,1 3.37,1.78 5.26,2.32 1.88,0.55 3.88,0.82 5.96,0.82 1.65,0 3.1,-0.11 4.35,-0.33 1.25,-0.21 2.34,-0.48 3.27,-0.82 0.93,-0.33 1.71,-0.68 2.34,-1.08 0.63,-0.39 1.15,-0.77 1.56,-1.13 -0.02,0 -0.03,-0.06 -0.03,-0.19 0,-0.28 0.02,-0.8 0.07,-1.55 0.05,-0.75 0.11,-1.59 0.17,-2.51 0.07,-0.92 0.12,-1.86 0.17,-2.81 0.05,-0.94 0.08,-1.77 0.08,-2.46 0,-0.12 -0.04,-0.24 -0.12,-0.38 -0.08,-0.14 -0.26,-0.21 -0.57,-0.21 -0.16,0 -0.37,0.03 -0.61,0.08 -0.4,0.11 -0.9,0.37 -1.49,0.78 -0.61,0.4 -1.31,0.83 -2.11,1.27 -0.8,0.44 -1.68,0.83 -2.67,1.18 -0.99,0.35 -2.06,0.52 -3.23,0.52 -1.54,0 -2.94,-0.33 -4.2,-0.97 -1.26,-0.65 -2.33,-1.55 -3.21,-2.7 -0.88,-1.16 -1.57,-2.52 -2.06,-4.11 -0.49,-1.58 -0.73,-3.3 -0.73,-5.15 0,-1.64 0.15,-3.17 0.45,-4.59 0.3,-1.42 0.75,-2.66 1.37,-3.7 0.6,-1.04 1.36,-1.86 2.27,-2.46 0.9,-0.6 1.96,-0.9 3.18,-0.9 1.18,0 2.53,0.25 4.03,0.76 l 0.65,3.97 h -5.38 c 0.41,2.27 0.77,4.05 1.07,5.34 0.3,1.3 0.58,2.27 0.84,2.92 0.26,0.66 0.54,1.07 0.82,1.24 0.28,0.17 0.61,0.25 0.98,0.25 h 14.82 c 0.43,0 0.75,-0.03 0.94,-0.08 0.21,-0.06 0.3,-0.25 0.3,-0.59 0,-0.17 -0.02,-0.38 -0.06,-0.61 -0.02,-0.24 -0.07,-0.52 -0.13,-0.85 l -1.41,-4.73 c -0.17,-0.61 -0.31,-1.07 -0.43,-1.4 -0.1,-0.33 -0.25,-0.58 -0.42,-0.73 -0.16,-0.16 -0.39,-0.25 -0.68,-0.28 -0.3,-0.03 -0.71,-0.05 -1.26,-0.05 -0.3,0 -0.479,-0.11 -0.53,-0.36 -0.06,-0.24 -0.11,-0.49 -0.15,-0.76 -0.11,-0.83 -0.23,-1.65 -0.33,-2.46 -0.12,-0.82 -0.22,-1.58 -0.33,-2.28 -0.1,-0.71 -0.21,-1.33 -0.33,-1.86 -0.1,-0.54 -0.22,-0.92 -0.33,-1.17 -1.28,-0.81 -2.44,-1.51 -3.48,-2.13 -1.04,-0.6 -2.08,-1.11 -3.11,-1.52 -1.04,-0.4 -2.13,-0.7 -3.27,-0.91 -1.15,-0.2 -2.46,-0.31 -3.94,-0.31 -2.66,0 -5.14,0.48 -7.45,1.43 -2.32,0.97 -4.31,2.31 -6.02,4.04 -1.7,1.74 -3.05,3.81 -4.02,6.22 -0.98,2.39 -1.47,5.05 -1.47,7.96 z m -44.34,5.16 c -0.08,-0.26 -0.21,-0.63 -0.43,-1.11 -0.2,-0.48 -0.44,-1.02 -0.72,-1.63 -0.27,-0.59 -0.56,-1.24 -0.86,-1.93 -0.32,-0.68 -0.62,-1.38 -0.93,-2.07 -0.1,-0.27 -0.21,-0.46 -0.3,-0.58 -0.1,-0.12 -0.25,-0.21 -0.46,-0.26 -0.2,-0.06 -0.49,-0.1 -0.85,-0.11 -0.37,-0.01 -0.88,-0.02 -1.54,-0.04 l -3.91,-0.09 -0.79,-8.56 h 14.45 v -1.1 c -0.04,-0.04 -0.2,-0.29 -0.48,-0.75 -0.28,-0.46 -0.61,-1.01 -0.98,-1.64 -0.38,-0.65 -0.78,-1.29 -1.18,-1.94 -0.42,-0.64 -0.77,-1.17 -1.05,-1.57 -0.18,-0.33 -0.41,-0.6 -0.65,-0.79 -0.25,-0.21 -0.51,-0.35 -0.8,-0.44 -0.29,-0.09 -0.61,-0.15 -0.96,-0.17 -0.34,-0.02 -0.73,-0.03 -1.14,-0.03 -1.69,0 -3.45,0.04 -5.28,0.12 -1.84,0.07 -3.66,0.16 -5.48,0.27 -1.83,0.12 -3.61,0.25 -5.34,0.38 -1.74,0.14 -3.35,0.29 -4.84,0.44 -0.12,0.02 -0.25,0.1 -0.34,0.22 -0.11,0.14 -0.16,0.28 -0.16,0.46 -0.07,0 -0.03,0.16 0.16,0.48 0.17,0.31 0.42,0.73 0.74,1.23 0.31,0.51 0.67,1.08 1.05,1.73 0.39,0.65 0.77,1.3 1.12,1.96 l 0.45,6.33 c 0.08,1.07 0.14,1.86 0.18,2.38 0.05,0.53 0.07,0.81 0.07,0.85 -1.12,0.02 -1.97,0.08 -2.52,0.17 -0.55,0.09 -0.82,0.3 -0.82,0.62 0,0.15 0.13,0.43 0.4,0.85 0.27,0.41 0.61,0.88 1,1.42 0.39,0.54 0.81,1.1 1.25,1.68 0.44,0.58 0.84,1.12 1.17,1.61 l 0.71,9.59 h -0.09 c -0.42,-0.02 -0.79,-0.04 -1.13,-0.05 -0.33,-0.01 -0.64,-0.01 -0.92,-0.01 -0.9,0 -1.55,0.05 -1.93,0.15 -0.39,0.11 -0.58,0.3 -0.58,0.58 0,0.13 0.12,0.4 0.34,0.82 0.22,0.41 0.51,0.88 0.84,1.42 0.34,0.54 0.7,1.1 1.07,1.69 0.38,0.59 0.71,1.15 1.02,1.65 l 1.68,2.87 h 11.78 l 13.89,1.02 c 0.02,0 0.08,0 0.16,-0.01 0.08,-0.01 0.18,-0.04 0.26,-0.08 0.1,-0.05 0.19,-0.13 0.27,-0.24 0.09,-0.12 0.13,-0.28 0.13,-0.48 L 927,429.46 c -0.13,-0.41 -0.29,-0.85 -0.48,-1.32 -0.19,-0.46 -0.39,-0.93 -0.62,-1.42 l -1.24,-3.27 c -0.14,-0.32 -0.28,-0.56 -0.45,-0.73 -0.17,-0.16 -0.52,-0.26 -1.07,-0.28 -1.42,-0.04 -3.02,-0.09 -4.78,-0.18 -1.75,-0.09 -3.77,-0.16 -6.04,-0.24 -0.08,-0.26 -0.12,-0.47 -0.12,-0.64 0,-0.16 -0.01,-0.46 -0.05,-0.91 l -0.14,-1.3 c -0.04,-0.6 -0.09,-1.25 -0.17,-1.94 -0.08,-0.7 -0.16,-1.55 -0.28,-2.57 0.96,0.04 1.89,0.07 2.8,0.11 0.91,0.04 1.75,0.06 2.5,0.08 0.75,0.03 1.4,0.05 1.95,0.07 0.56,0.02 0.94,0.03 1.18,0.03 0.15,0 0.31,-0.06 0.5,-0.17 0.19,-0.11 0.28,-0.33 0.28,-0.65 0,-0.15 -0.03,-0.31 -0.08,-0.51 z m -63.81,14.37 c 0.15,0.63 0.28,1.08 0.39,1.36 0.12,0.28 0.36,0.47 0.73,0.57 l 7.29,1.71 c 0.23,0.07 0.47,0.11 0.73,0.11 0.25,0 0.43,-0.09 0.54,-0.25 0.12,-0.17 0.18,-0.49 0.18,-0.96 -0.12,-0.45 -0.22,-1.14 -0.29,-2.07 -0.07,-0.93 -0.13,-1.95 -0.17,-3.06 -0.04,-1.1 -0.06,-2.22 -0.08,-3.33 -0.02,-1.12 -0.03,-2.1 -0.03,-2.92 v -1.55 c 0,-1.17 -0.01,-2.44 -0.03,-3.8 -0.02,-1.38 -0.04,-2.76 -0.07,-4.18 -0.02,-1.4 -0.05,-2.8 -0.08,-4.16 -0.04,-1.38 -0.07,-2.67 -0.11,-3.87 l -0.15,-4.82 c -0.01,-0.08 -0.02,-0.17 -0.02,-0.25 0,-0.07 0,-0.15 0,-0.22 v -0.42 c 0,-0.33 0,-0.59 0,-0.81 0,-0.21 0,-0.4 0,-0.57 0,-0.2 -0.01,-0.36 -0.04,-0.52 -0.03,-0.14 -0.11,-0.29 -0.21,-0.43 -0.12,-0.14 -0.27,-0.29 -0.48,-0.44 -0.19,-0.14 -0.46,-0.34 -0.79,-0.56 -0.2,-0.13 -0.5,-0.32 -0.94,-0.57 -0.43,-0.26 -0.91,-0.54 -1.44,-0.87 -0.52,-0.32 -1.07,-0.64 -1.63,-0.98 -0.56,-0.34 -1.08,-0.65 -1.55,-0.91 -0.47,-0.28 -0.86,-0.51 -1.15,-0.67 -0.28,-0.17 -0.43,-0.26 -0.43,-0.26 l -13.08,20.12 -1.18,-16.48 c -0.02,-0.15 -0.05,-0.31 -0.1,-0.47 -0.05,-0.18 -0.17,-0.31 -0.38,-0.4 -0.17,-0.08 -0.46,-0.19 -0.88,-0.35 -0.4,-0.17 -0.89,-0.35 -1.44,-0.55 -0.56,-0.21 -1.13,-0.43 -1.75,-0.64 -0.61,-0.22 -1.19,-0.41 -1.73,-0.59 -0.55,-0.18 -1.03,-0.32 -1.45,-0.44 -0.43,-0.11 -0.72,-0.17 -0.86,-0.17 -0.29,0 -0.52,0.08 -0.71,0.23 -0.18,0.15 -0.28,0.42 -0.28,0.82 0.19,2.35 0.4,4.9 0.64,7.67 0.25,2.77 0.49,5.62 0.72,8.52 0.22,2.92 0.43,5.82 0.63,8.73 0.19,2.9 0.36,5.65 0.49,8.27 0,0.07 -0.11,0.33 -0.35,0.75 -0.24,0.42 -0.5,0.87 -0.79,1.37 -0.29,0.5 -0.55,0.97 -0.79,1.42 -0.23,0.44 -0.35,0.71 -0.35,0.82 0,0.14 0.07,0.25 0.21,0.37 0.14,0.11 0.37,0.26 0.69,0.45 l 7.53,4.29 c 0.04,0 0.13,0.01 0.23,0.03 0.1,0.02 0.19,0.03 0.27,0.03 0.21,0 0.37,-0.03 0.5,-0.08 0.11,-0.06 0.24,-0.21 0.37,-0.46 l 13.67,-24.66 z m -66.91,-38.66 1.41,19.29 c 0.47,6.47 0.81,11.22 1.04,14.24 0.22,3.03 0.34,4.53 0.34,4.51 0.02,0.34 0.04,0.62 0.06,0.84 0.02,0.23 0.05,0.42 0.1,0.57 0.06,0.15 0.14,0.26 0.23,0.34 0.1,0.07 0.24,0.13 0.43,0.17 l 9.76,2.34 c 0.24,0.07 0.49,0.11 0.76,0.11 0.26,0 0.44,-0.07 0.54,-0.24 0.08,-0.16 0.13,-0.48 0.13,-0.97 -0.13,-1.16 -0.23,-2.26 -0.3,-3.27 -0.08,-1.02 -0.14,-1.98 -0.19,-2.9 -0.05,-0.93 -0.08,-1.81 -0.12,-2.67 -0.04,-0.85 -0.09,-1.71 -0.15,-2.56 -0.11,-0.91 -0.21,-1.83 -0.3,-2.76 -0.08,-0.92 -0.16,-1.87 -0.24,-2.85 -0.07,-0.99 -0.15,-2.04 -0.24,-3.14 -0.07,-1.09 -0.18,-2.3 -0.29,-3.59 l -1.24,-14.86 c -0.02,-0.17 -0.05,-0.33 -0.1,-0.49 -0.05,-0.17 -0.17,-0.29 -0.38,-0.39 -0.02,0 -0.13,-0.04 -0.34,-0.1 -0.21,-0.08 -0.47,-0.18 -0.82,-0.3 -0.34,-0.13 -0.73,-0.25 -1.18,-0.39 -0.46,-0.12 -0.94,-0.25 -1.44,-0.36 -0.84,-0.18 -1.58,-0.38 -2.22,-0.57 -0.62,-0.18 -1.18,-0.36 -1.67,-0.52 -0.49,-0.15 -0.94,-0.29 -1.36,-0.37 -0.41,-0.1 -0.82,-0.15 -1.24,-0.15 -0.28,0 -0.52,0.08 -0.7,0.22 -0.19,0.16 -0.28,0.43 -0.28,0.82 z m -37.88,41.32 c -0.02,-0.46 -0.06,-1.01 -0.12,-1.68 -0.05,-0.66 -0.11,-1.37 -0.18,-2.11 -0.07,-0.74 -0.14,-1.49 -0.22,-2.25 -0.09,-0.76 -0.16,-1.47 -0.23,-2.1 -0.07,-0.65 -0.12,-1.19 -0.15,-1.66 -0.04,-0.46 -0.06,-0.75 -0.06,-0.88 -0.08,-1.16 -0.16,-2.24 -0.24,-3.24 -0.08,-0.99 -0.18,-1.98 -0.26,-2.95 -0.1,-0.98 -0.19,-1.99 -0.3,-3.03 -0.11,-1.05 -0.21,-2.2 -0.33,-3.45 -0.11,-1.26 -0.24,-2.66 -0.37,-4.2 -0.15,-1.55 -0.29,-3.31 -0.44,-5.3 l 11.66,1.19 c 0.53,0.05 0.96,0.08 1.3,0.08 0.41,0 0.67,-0.06 0.77,-0.2 0.1,-0.12 0.15,-0.34 0.15,-0.61 0,-0.04 0,-0.09 -0.02,-0.16 -0.02,-0.07 -0.06,-0.19 -0.13,-0.38 -0.06,-0.19 -0.15,-0.46 -0.28,-0.82 -0.13,-0.36 -0.29,-0.86 -0.49,-1.49 l -0.63,-1.86 c -0.2,-0.6 -0.39,-1.14 -0.57,-1.62 -0.18,-0.48 -0.4,-0.89 -0.67,-1.24 -0.26,-0.35 -0.58,-0.63 -0.98,-0.83 -0.39,-0.21 -0.9,-0.34 -1.52,-0.4 -0.39,-0.03 -0.93,-0.06 -1.6,-0.09 -0.69,-0.03 -1.46,-0.06 -2.34,-0.09 -0.88,-0.03 -1.84,-0.05 -2.87,-0.09 -1.02,-0.04 -2.06,-0.09 -3.13,-0.15 -1.06,-0.04 -2.12,-0.06 -3.19,-0.07 -1.07,0 -2.08,-0.02 -3.04,-0.04 -0.96,-0.02 -1.84,-0.04 -2.65,-0.06 -0.81,-0.02 -1.48,-0.04 -2,-0.06 -0.49,0 -0.84,0.04 -1.06,0.12 -0.22,0.07 -0.32,0.19 -0.32,0.36 0,0.2 0.06,0.5 0.2,0.89 0.12,0.38 0.3,0.81 0.5,1.3 0.21,0.48 0.44,0.97 0.69,1.49 0.26,0.52 0.5,1.01 0.75,1.51 l 0.76,10.05 c 0.16,1.71 0.3,3.45 0.45,5.21 0.15,1.77 0.28,3.48 0.4,5.12 l 0.48,7.48 c 0.1,1.76 0.18,3.04 0.22,3.83 0.04,0.8 0.06,1.24 0.06,1.32 0.04,0.34 0.07,0.62 0.08,0.85 0.02,0.22 0.05,0.41 0.1,0.56 0.05,0.15 0.12,0.25 0.21,0.33 0.1,0.08 0.23,0.14 0.43,0.17 l 9.88,2.34 c 0.21,0.08 0.46,0.12 0.76,0.12 0.21,0 0.36,-0.06 0.44,-0.18 0.08,-0.13 0.13,-0.36 0.13,-0.7 0,-0.04 -0.01,-0.08 -0.02,-0.15 -0.01,-0.07 -0.01,-0.13 -0.01,-0.18 z m -80.64,-22.19 c 0,2.15 0.25,4.23 0.75,6.2 0.5,1.98 1.2,3.84 2.13,5.55 0.92,1.72 2.04,3.28 3.34,4.67 1.31,1.4 2.77,2.6 4.39,3.61 1.61,1 3.37,1.78 5.26,2.32 1.88,0.55 3.88,0.82 5.96,0.82 1.65,0 3.1,-0.11 4.35,-0.33 1.25,-0.21 2.34,-0.48 3.27,-0.82 0.93,-0.33 1.71,-0.68 2.34,-1.08 0.63,-0.39 1.15,-0.77 1.56,-1.13 -0.02,0 -0.03,-0.06 -0.03,-0.19 0,-0.28 0.02,-0.8 0.07,-1.55 0.05,-0.75 0.11,-1.59 0.17,-2.51 0.07,-0.92 0.12,-1.86 0.17,-2.81 0.05,-0.94 0.07,-1.77 0.07,-2.46 0,-0.12 -0.03,-0.24 -0.11,-0.38 -0.08,-0.14 -0.26,-0.21 -0.57,-0.21 -0.16,0 -0.37,0.03 -0.61,0.08 -0.4,0.11 -0.9,0.37 -1.49,0.78 -0.61,0.4 -1.31,0.83 -2.11,1.27 -0.8,0.44 -1.68,0.83 -2.67,1.18 -0.99,0.35 -2.06,0.52 -3.23,0.52 -1.54,0 -2.94,-0.33 -4.2,-0.97 -1.26,-0.65 -2.33,-1.55 -3.21,-2.7 -0.89,-1.16 -1.57,-2.52 -2.06,-4.11 -0.49,-1.58 -0.73,-3.3 -0.73,-5.15 0,-1.64 0.15,-3.17 0.45,-4.59 0.3,-1.42 0.75,-2.66 1.37,-3.7 0.6,-1.04 1.36,-1.86 2.27,-2.46 0.9,-0.6 1.96,-0.9 3.18,-0.9 1.18,0 2.53,0.25 4.03,0.76 l 0.65,3.97 h -5.38 c 0.41,2.27 0.77,4.05 1.07,5.34 0.3,1.3 0.58,2.27 0.84,2.92 0.26,0.66 0.54,1.07 0.82,1.24 0.28,0.17 0.61,0.25 0.98,0.25 h 14.82 c 0.43,0 0.75,-0.03 0.94,-0.08 0.21,-0.06 0.3,-0.25 0.3,-0.59 0,-0.17 -0.02,-0.38 -0.06,-0.61 -0.02,-0.24 -0.07,-0.52 -0.13,-0.85 L 709,405.03 c -0.17,-0.61 -0.31,-1.07 -0.43,-1.4 -0.1,-0.33 -0.25,-0.58 -0.42,-0.73 -0.16,-0.16 -0.39,-0.25 -0.68,-0.28 -0.3,-0.03 -0.72,-0.05 -1.26,-0.05 -0.3,0 -0.48,-0.11 -0.53,-0.36 -0.06,-0.24 -0.11,-0.49 -0.15,-0.76 -0.11,-0.83 -0.23,-1.65 -0.33,-2.46 -0.12,-0.82 -0.22,-1.58 -0.33,-2.28 -0.11,-0.71 -0.21,-1.33 -0.33,-1.86 -0.1,-0.54 -0.22,-0.92 -0.33,-1.17 -1.28,-0.81 -2.44,-1.51 -3.48,-2.13 -1.04,-0.6 -2.08,-1.11 -3.11,-1.52 -1.04,-0.4 -2.13,-0.7 -3.27,-0.91 -1.15,-0.2 -2.46,-0.31 -3.94,-0.31 -2.66,0 -5.14,0.48 -7.45,1.43 -2.32,0.97 -4.32,2.31 -6.02,4.04 -1.7,1.74 -3.05,3.81 -4.02,6.22 -0.98,2.39 -1.47,5.05 -1.47,7.96 z m -44.65,9.17 c -0.45,-1.67 -0.9,-3.18 -1.34,-4.54 -0.44,-1.35 -0.84,-2.55 -1.21,-3.6 -0.36,-1.06 -0.68,-1.94 -0.94,-2.67 -0.27,-0.72 -0.45,-1.27 -0.57,-1.66 v -0.26 c 0,-0.11 -0.01,-0.18 -0.03,-0.22 h 6.76 c -0.2,0.91 -0.42,1.85 -0.66,2.78 -0.23,0.94 -0.46,1.92 -0.68,2.95 -0.23,1.03 -0.46,2.14 -0.69,3.32 -0.22,1.17 -0.44,2.48 -0.64,3.9 z M 607.81,392.3 c 0.25,0.48 0.5,1.03 0.76,1.65 0.26,0.6 0.51,1.27 0.74,1.98 l 0.76,1.86 c -0.34,0.51 -0.69,1.06 -1.03,1.65 -0.35,0.59 -0.67,1.2 -0.95,1.82 -0.28,0.62 -0.51,1.24 -0.69,1.86 -0.18,0.62 -0.27,1.22 -0.27,1.8 0,0.04 0.15,0.08 0.43,0.1 0.3,0.02 0.67,0.05 1.11,0.07 0.44,0.02 0.91,0.03 1.43,0.04 0.52,0.01 1,0.02 1.44,0.03 0.44,0.01 0.8,0.02 1.1,0.03 0.29,0.01 0.44,0.01 0.44,0.01 0.43,1.13 0.85,2.2 1.27,3.21 0.41,1.02 0.82,2.04 1.24,3.08 0.41,1.03 0.82,2.09 1.24,3.16 0.41,1.09 0.82,2.24 1.24,3.48 0.79,2.34 1.55,4.39 2.3,6.15 0.75,1.77 1.46,3.41 2.12,4.93 0.07,0.19 0.2,0.36 0.38,0.52 0.18,0.17 0.37,0.3 0.57,0.42 0.21,0.1 0.42,0.2 0.61,0.27 0.2,0.08 0.35,0.14 0.47,0.17 0.07,0.02 0.36,0.1 0.86,0.26 0.5,0.14 1.06,0.31 1.7,0.48 0.64,0.16 1.28,0.32 1.9,0.44 0.63,0.14 1.14,0.2 1.51,0.2 h 0.5 c 0.31,0 0.6,-0.06 0.87,-0.21 0.27,-0.14 0.45,-0.41 0.55,-0.83 0.9,-2.31 1.86,-4.83 2.88,-7.56 1.03,-2.74 2.03,-5.75 3,-9.03 0.53,-1.77 1.05,-3.45 1.55,-5.03 0.51,-1.57 1.02,-3.11 1.53,-4.61 0.5,-1.51 1.01,-3.01 1.53,-4.51 0.52,-1.5 1.05,-3.06 1.6,-4.66 0.16,-0.67 0.33,-1.21 0.51,-1.6 0.18,-0.4 0.35,-0.7 0.5,-0.93 0.15,-0.23 0.27,-0.39 0.36,-0.5 0.1,-0.09 0.14,-0.2 0.14,-0.31 0,-0.12 -0.18,-0.23 -0.53,-0.34 l -6.06,-1.97 c -0.45,-0.17 -0.91,-0.35 -1.38,-0.51 -0.47,-0.17 -0.91,-0.32 -1.33,-0.45 -0.41,-0.14 -0.76,-0.24 -1.08,-0.33 -0.31,-0.09 -0.53,-0.13 -0.66,-0.13 h -0.17 c -0.26,0 -0.45,0.08 -0.57,0.25 -0.1,0.16 -0.18,0.31 -0.22,0.46 -0.19,0.62 -0.37,1.18 -0.56,1.68 -0.19,0.5 -0.37,1 -0.55,1.5 -0.18,0.5 -0.36,1.03 -0.53,1.6 -0.19,0.55 -0.36,1.23 -0.53,2 -0.04,0.09 -0.14,0.17 -0.31,0.24 -0.16,0.06 -0.36,0.11 -0.61,0.15 -0.23,0.04 -0.48,0.07 -0.75,0.08 -0.25,0.01 -0.5,0.01 -0.73,0.01 -0.71,0 -1.29,0 -1.73,-0.01 -0.44,-0.01 -0.82,-0.01 -1.16,-0.02 -0.35,-0.01 -0.66,-0.01 -0.98,-0.02 -0.31,-0.01 -0.68,-0.01 -1.14,-0.01 -0.54,0 -1.1,0.01 -1.67,0.02 -0.58,0.01 -1.1,0.02 -1.57,0.04 l -1.6,0.06 c -0.49,-1.37 -0.98,-2.64 -1.47,-3.83 -0.49,-1.19 -1.01,-2.42 -1.58,-3.69 -0.03,-0.15 -0.13,-0.26 -0.26,-0.36 -0.15,-0.1 -0.29,-0.15 -0.44,-0.15 -0.11,0 -0.18,0.02 -0.2,0.03 -1.82,0.66 -3.35,1.31 -4.59,1.95 -1.24,0.63 -2.32,1.26 -3.24,1.86 z m -44.96,-2.95 c 0.09,1.38 0.18,2.7 0.28,3.97 0.09,1.28 0.18,2.52 0.24,3.72 l 1.02,13.3 c 0.12,1.01 0.21,1.95 0.28,2.77 0.08,0.84 0.14,1.66 0.19,2.46 0.04,0.79 0.09,1.6 0.14,2.42 0.05,0.82 0.1,1.72 0.15,2.72 -0.61,0.02 -1.26,0.03 -1.96,0.03 -0.68,0 -1.39,0 -2.15,0 h -5.44 c -0.21,0 -0.33,0.08 -0.38,0.24 -0.05,0.15 -0.07,0.31 -0.07,0.43 v 0.21 l 3.1,8.13 -0.03,0.12 c 0,0.09 0.07,0.17 0.18,0.24 0.13,0.07 0.41,0.11 0.84,0.15 2.59,0.15 5.11,0.3 7.54,0.44 2.42,0.14 4.83,0.26 7.21,0.38 2.38,0.11 4.75,0.23 7.13,0.34 2.37,0.11 4.82,0.22 7.34,0.31 0.22,0 0.46,-0.03 0.72,-0.08 0.25,-0.06 0.37,-0.27 0.37,-0.63 0,-0.04 -0.01,-0.08 -0.03,-0.11 -0.02,-0.03 -0.02,-0.07 -0.02,-0.11 -0.3,-0.77 -0.58,-1.5 -0.83,-2.2 -0.25,-0.7 -0.5,-1.38 -0.75,-2.06 -0.24,-0.67 -0.49,-1.36 -0.74,-2.05 -0.26,-0.7 -0.54,-1.43 -0.84,-2.2 -0.02,-0.02 -0.06,-0.11 -0.11,-0.27 -0.05,-0.16 -0.14,-0.34 -0.25,-0.53 -0.12,-0.2 -0.26,-0.38 -0.46,-0.56 -0.18,-0.16 -0.42,-0.26 -0.7,-0.28 -0.09,0.02 -0.19,0.03 -0.28,0.03 -0.09,0 -0.2,0 -0.32,0 h -7.52 c -0.09,-0.96 -0.18,-1.97 -0.26,-3.04 -0.08,-1.07 -0.19,-2.11 -0.29,-3.13 l -2.06,-22.01 c -0.02,-0.16 -0.06,-0.33 -0.1,-0.5 -0.05,-0.17 -0.18,-0.29 -0.38,-0.36 l -7.97,-2.88 c -0.22,-0.07 -0.49,-0.17 -0.82,-0.28 -0.34,-0.11 -0.67,-0.17 -0.99,-0.17 -0.26,0 -0.49,0.07 -0.69,0.19 -0.2,0.14 -0.29,0.38 -0.29,0.74 v 0.11 0"
       style="fill:#ff926b;fill-opacity:1;fill-rule:nonzero;stroke:none;stroke-width:0.1"
       id="path124" />
    <path
       d="m 1438.11,413.62 c -0.07,-0.26 -0.21,-0.63 -0.42,-1.11 -0.2,-0.48 -0.44,-1.02 -0.72,-1.63 -0.27,-0.59 -0.56,-1.24 -0.87,-1.93 -0.31,-0.68 -0.61,-1.38 -0.92,-2.07 -0.1,-0.27 -0.21,-0.46 -0.31,-0.58 -0.09,-0.12 -0.24,-0.21 -0.45,-0.26 -0.2,-0.06 -0.49,-0.1 -0.85,-0.11 -0.37,-0.01 -0.88,-0.02 -1.54,-0.04 l -3.92,-0.09 -0.79,-8.56 h 14.46 v -1.1 c -0.04,-0.04 -0.2,-0.29 -0.48,-0.75 -0.28,-0.46 -0.61,-1.01 -0.98,-1.64 -0.38,-0.65 -0.78,-1.29 -1.19,-1.94 -0.41,-0.64 -0.77,-1.17 -1.04,-1.57 -0.19,-0.33 -0.41,-0.6 -0.65,-0.79 -0.25,-0.21 -0.51,-0.35 -0.81,-0.44 -0.28,-0.09 -0.6,-0.15 -0.95,-0.17 -0.34,-0.02 -0.73,-0.03 -1.14,-0.03 -1.7,0 -3.46,0.04 -5.28,0.12 -1.84,0.07 -3.67,0.16 -5.48,0.27 -1.83,0.12 -3.61,0.25 -5.34,0.38 -1.74,0.14 -3.35,0.29 -4.84,0.44 -0.12,0.02 -0.25,0.1 -0.35,0.22 -0.1,0.14 -0.15,0.28 -0.15,0.46 -0.08,0 -0.03,0.16 0.15,0.48 0.18,0.31 0.43,0.73 0.75,1.23 0.31,0.51 0.67,1.08 1.05,1.73 0.39,0.65 0.76,1.3 1.12,1.96 l 0.45,6.33 c 0.08,1.07 0.14,1.86 0.18,2.38 0.05,0.53 0.07,0.81 0.07,0.85 -1.12,0.02 -1.97,0.08 -2.52,0.17 -0.56,0.09 -0.83,0.3 -0.83,0.62 0,0.15 0.14,0.43 0.41,0.85 0.27,0.41 0.6,0.88 1,1.42 0.39,0.54 0.8,1.1 1.25,1.68 0.44,0.58 0.83,1.12 1.17,1.61 l 0.7,9.59 h -0.08 c -0.42,-0.02 -0.79,-0.04 -1.13,-0.05 -0.34,-0.01 -0.64,-0.01 -0.92,-0.01 -0.91,0 -1.55,0.05 -1.93,0.15 -0.39,0.11 -0.58,0.3 -0.58,0.58 0,0.13 0.11,0.4 0.33,0.82 0.23,0.41 0.51,0.88 0.85,1.42 0.34,0.54 0.69,1.1 1.07,1.69 0.37,0.59 0.71,1.15 1.02,1.65 l 1.68,2.87 h 11.78 l 13.89,1.02 c 0.02,0 0.08,0 0.15,-0.01 0.09,-0.01 0.19,-0.04 0.27,-0.08 0.1,-0.05 0.19,-0.13 0.27,-0.24 0.09,-0.12 0.13,-0.28 0.13,-0.48 l -0.43,-1.47 c -0.12,-0.41 -0.29,-0.85 -0.47,-1.32 -0.19,-0.46 -0.39,-0.93 -0.62,-1.42 l -1.24,-3.27 c -0.14,-0.32 -0.28,-0.56 -0.46,-0.73 -0.16,-0.16 -0.51,-0.26 -1.06,-0.28 -1.43,-0.04 -3.02,-0.09 -4.78,-0.18 -1.75,-0.09 -3.77,-0.16 -6.04,-0.24 -0.08,-0.26 -0.12,-0.47 -0.12,-0.64 0,-0.16 -0.02,-0.46 -0.05,-0.91 l -0.14,-1.3 c -0.04,-0.6 -0.1,-1.25 -0.17,-1.94 -0.08,-0.7 -0.17,-1.55 -0.28,-2.57 0.96,0.04 1.89,0.07 2.8,0.11 0.91,0.04 1.75,0.06 2.5,0.08 0.75,0.03 1.4,0.05 1.95,0.07 0.56,0.02 0.94,0.03 1.17,0.03 0.16,0 0.32,-0.06 0.51,-0.17 0.18,-0.11 0.28,-0.33 0.28,-0.65 0,-0.15 -0.03,-0.31 -0.09,-0.51 z M 1364,411.63 c 0.95,0 1.95,0.24 2.98,0.73 1.04,0.49 1.97,1.12 2.81,1.89 0.85,0.77 1.54,1.64 2.09,2.62 0.55,0.98 0.82,1.97 0.82,2.96 0,2.71 -1.64,4.06 -4.9,4.06 -0.62,0 -1.14,-0.03 -1.55,-0.11 -0.42,-0.08 -0.79,-0.14 -1.13,-0.17 z m -1.73,-19.11 c -0.02,-0.17 -0.04,-0.33 -0.09,-0.5 -0.05,-0.15 -0.17,-0.28 -0.38,-0.37 -0.07,-0.04 -0.45,-0.17 -1.11,-0.41 -0.67,-0.24 -1.44,-0.51 -2.31,-0.82 -0.88,-0.31 -1.74,-0.62 -2.6,-0.93 -0.85,-0.31 -1.51,-0.54 -1.95,-0.72 -0.23,-0.09 -0.51,-0.2 -0.84,-0.31 -0.32,-0.11 -0.65,-0.17 -0.97,-0.17 -0.26,0 -0.49,0.07 -0.69,0.2 -0.19,0.13 -0.3,0.38 -0.3,0.74 0,0.82 0.03,1.57 0.08,2.26 0.05,0.69 0.1,1.41 0.18,2.16 0.08,0.75 0.16,1.59 0.24,2.5 0.08,0.9 0.17,1.99 0.24,3.25 0.09,1.65 0.19,3.25 0.31,4.78 0.12,1.53 0.22,3.13 0.34,4.78 l 0.39,4.82 c 0.06,0.79 0.12,1.59 0.17,2.41 0.05,0.82 0.11,1.66 0.17,2.53 l 0.31,3.43 c 0,0.04 -0.05,0.06 -0.17,0.06 -0.15,0 -0.4,-0.03 -0.76,-0.09 -0.35,-0.07 -0.78,-0.15 -1.27,-0.24 -0.49,-0.1 -1.03,-0.2 -1.62,-0.3 -0.59,-0.11 -1.19,-0.21 -1.82,-0.3 -0.14,0 -0.29,0.04 -0.43,0.1 -0.15,0.06 -0.21,0.15 -0.21,0.24 0,0.07 0.01,0.13 0.05,0.17 l 4.57,7.98 c 1.03,0.22 2.15,0.45 3.34,0.69 1.19,0.23 2.47,0.44 3.85,0.64 1.36,0.18 2.82,0.33 4.36,0.46 1.54,0.12 3.18,0.18 4.91,0.18 1.95,-0.04 3.84,-0.23 5.7,-0.58 1.85,-0.34 3.49,-0.93 4.92,-1.75 1.45,-0.81 2.6,-1.92 3.47,-3.31 0.88,-1.41 1.31,-3.18 1.31,-5.32 0,-1.18 -0.2,-2.27 -0.6,-3.26 -0.41,-1 -0.93,-1.9 -1.55,-2.69 -0.63,-0.8 -1.32,-1.5 -2.07,-2.12 -0.76,-0.61 -1.47,-1.13 -2.16,-1.56 -0.69,-0.43 -1.29,-0.78 -1.81,-1.03 -0.53,-0.26 -0.89,-0.42 -1.08,-0.49 0,-0.04 0.02,-0.08 0.05,-0.14 0.03,-0.06 0.09,-0.16 0.18,-0.33 0.09,-0.15 0.23,-0.38 0.41,-0.67 0.18,-0.29 0.41,-0.69 0.69,-1.2 0.3,-0.45 0.65,-1.05 1.07,-1.8 0.41,-0.75 0.9,-1.64 1.48,-2.67 0.57,-1.02 1.23,-2.16 1.99,-3.42 0.75,-1.26 1.61,-2.61 2.59,-4.06 0.31,-0.28 0.68,-0.45 1.09,-0.52 0.42,-0.07 0.8,-0.1 1.16,-0.11 0.36,-0.01 0.66,-0.03 0.9,-0.05 0.25,-0.03 0.37,-0.16 0.37,-0.36 0,-0.15 -0.16,-0.32 -0.47,-0.52 -0.3,-0.2 -0.67,-0.4 -1.08,-0.6 -0.42,-0.21 -0.83,-0.41 -1.25,-0.6 -0.43,-0.18 -0.75,-0.34 -0.97,-0.45 -0.46,-0.22 -0.93,-0.44 -1.42,-0.65 -0.49,-0.2 -1.01,-0.43 -1.58,-0.69 -0.55,-0.25 -1.18,-0.55 -1.87,-0.88 -0.68,-0.34 -1.45,-0.74 -2.32,-1.21 -0.23,-0.14 -0.44,-0.22 -0.63,-0.27 -0.21,-0.05 -0.39,-0.08 -0.55,-0.08 -0.35,0 -0.64,0.08 -0.88,0.24 -0.25,0.15 -0.45,0.36 -0.62,0.58 -0.17,0.22 -0.3,0.45 -0.41,0.69 -0.1,0.23 -0.19,0.42 -0.26,0.58 l -8.4,17.69 z m -46.97,21.1 c -0.07,-0.26 -0.21,-0.63 -0.42,-1.11 -0.2,-0.48 -0.44,-1.02 -0.72,-1.63 -0.27,-0.59 -0.56,-1.24 -0.87,-1.93 -0.31,-0.68 -0.61,-1.38 -0.92,-2.07 -0.1,-0.27 -0.21,-0.46 -0.31,-0.58 -0.09,-0.12 -0.24,-0.21 -0.45,-0.26 -0.2,-0.06 -0.49,-0.1 -0.85,-0.11 -0.37,-0.01 -0.88,-0.02 -1.54,-0.04 l -3.92,-0.09 -0.79,-8.56 h 14.46 v -1.1 c -0.04,-0.04 -0.2,-0.29 -0.48,-0.75 -0.28,-0.46 -0.61,-1.01 -0.98,-1.64 -0.38,-0.65 -0.78,-1.29 -1.19,-1.94 -0.41,-0.64 -0.77,-1.17 -1.04,-1.57 -0.19,-0.33 -0.41,-0.6 -0.65,-0.79 -0.25,-0.21 -0.51,-0.35 -0.81,-0.44 -0.28,-0.09 -0.6,-0.15 -0.95,-0.17 -0.34,-0.02 -0.73,-0.03 -1.14,-0.03 -1.7,0 -3.46,0.04 -5.28,0.12 -1.84,0.07 -3.67,0.16 -5.48,0.27 -1.83,0.12 -3.61,0.25 -5.34,0.38 -1.74,0.14 -3.35,0.29 -4.84,0.44 -0.12,0.02 -0.25,0.1 -0.35,0.22 -0.1,0.14 -0.15,0.28 -0.15,0.46 -0.08,0 -0.03,0.16 0.15,0.48 0.18,0.31 0.43,0.73 0.75,1.23 0.31,0.51 0.67,1.08 1.05,1.73 0.39,0.65 0.76,1.3 1.12,1.96 l 0.45,6.33 c 0.08,1.07 0.14,1.86 0.18,2.38 0.05,0.53 0.07,0.81 0.07,0.85 -1.12,0.02 -1.97,0.08 -2.52,0.17 -0.56,0.09 -0.83,0.3 -0.83,0.62 0,0.15 0.14,0.43 0.41,0.85 0.27,0.41 0.6,0.88 1,1.42 0.39,0.54 0.81,1.1 1.25,1.68 0.44,0.58 0.83,1.12 1.17,1.61 l 0.7,9.59 h -0.08 c -0.42,-0.02 -0.79,-0.04 -1.13,-0.05 -0.33,-0.01 -0.64,-0.01 -0.92,-0.01 -0.91,0 -1.55,0.05 -1.93,0.15 -0.39,0.11 -0.58,0.3 -0.58,0.58 0,0.13 0.11,0.4 0.33,0.82 0.23,0.41 0.52,0.88 0.85,1.42 0.34,0.54 0.69,1.1 1.07,1.69 0.37,0.59 0.71,1.15 1.02,1.65 l 1.68,2.87 h 11.78 l 13.89,1.02 c 0.02,0 0.08,0 0.15,-0.01 0.09,-0.01 0.19,-0.04 0.27,-0.08 0.1,-0.05 0.19,-0.13 0.27,-0.24 0.09,-0.12 0.13,-0.28 0.13,-0.48 l -0.43,-1.47 c -0.12,-0.41 -0.29,-0.85 -0.47,-1.32 -0.19,-0.46 -0.39,-0.93 -0.62,-1.42 l -1.24,-3.27 c -0.14,-0.32 -0.28,-0.56 -0.46,-0.73 -0.16,-0.16 -0.51,-0.26 -1.06,-0.28 -1.43,-0.04 -3.02,-0.09 -4.78,-0.18 -1.75,-0.09 -3.77,-0.16 -6.04,-0.24 -0.08,-0.26 -0.12,-0.47 -0.12,-0.64 0,-0.16 -0.02,-0.46 -0.05,-0.91 l -0.14,-1.3 c -0.04,-0.6 -0.1,-1.25 -0.17,-1.94 -0.08,-0.7 -0.17,-1.55 -0.28,-2.57 0.96,0.04 1.89,0.07 2.8,0.11 0.91,0.04 1.75,0.06 2.5,0.08 0.75,0.03 1.4,0.05 1.95,0.07 0.56,0.02 0.94,0.03 1.17,0.03 0.16,0 0.32,-0.06 0.51,-0.17 0.19,-0.11 0.28,-0.33 0.28,-0.65 0,-0.15 -0.03,-0.31 -0.09,-0.51 z m -64.85,13.75 c 0,0.68 0.05,1.14 0.18,1.39 0.13,0.26 0.38,0.43 0.75,0.53 l 9.69,2.34 c 0.25,0.07 0.49,0.11 0.76,0.11 0.26,0 0.45,-0.07 0.53,-0.24 0.1,-0.16 0.15,-0.48 0.15,-0.97 l -0.34,-4.42 c -0.1,-1.3 -0.2,-2.59 -0.31,-3.87 -0.11,-1.28 -0.29,-2.39 -0.51,-3.36 l -0.51,-4 c -0.14,-1.18 -0.29,-2.47 -0.42,-3.84 -0.12,-1.39 -0.27,-2.94 -0.42,-4.65 l -1.32,-13.9 c -0.02,-0.17 -0.06,-0.33 -0.12,-0.5 -0.05,-0.18 -0.18,-0.29 -0.36,-0.37 -0.14,-0.06 -0.44,-0.18 -0.91,-0.37 -0.49,-0.19 -1.05,-0.4 -1.72,-0.65 -0.65,-0.24 -1.35,-0.5 -2.1,-0.77 -0.76,-0.28 -1.47,-0.52 -2.15,-0.75 -0.67,-0.22 -1.28,-0.41 -1.81,-0.57 -0.51,-0.14 -0.87,-0.22 -1.06,-0.22 -0.26,0 -0.49,0.07 -0.69,0.21 -0.2,0.15 -0.29,0.42 -0.29,0.81 0,2.27 0.12,4.6 0.39,6.98 0.26,2.38 0.49,4.74 0.7,7.09 0.04,0.27 0.05,0.51 0.04,0.74 -0.01,0.22 0.01,0.47 0.05,0.73 h -10.32 l -1.15,-12.36 c -0.02,-0.16 -0.05,-0.33 -0.1,-0.49 -0.05,-0.16 -0.17,-0.28 -0.38,-0.38 -0.07,-0.04 -0.45,-0.17 -1.11,-0.4 -0.67,-0.24 -1.44,-0.51 -2.32,-0.82 -0.86,-0.32 -1.73,-0.63 -2.59,-0.94 -0.85,-0.31 -1.51,-0.54 -1.96,-0.72 -0.22,-0.09 -0.5,-0.19 -0.83,-0.29 -0.32,-0.11 -0.65,-0.16 -0.97,-0.16 -0.26,0 -0.49,0.08 -0.69,0.22 -0.19,0.16 -0.3,0.44 -0.3,0.83 0,0.89 0.04,1.92 0.11,3.09 0.06,1.15 0.14,2.36 0.23,3.63 0.1,1.27 0.21,2.57 0.35,3.91 0.12,1.33 0.26,2.65 0.39,3.95 l 0.06,0.82 c -1.53,0 -2.63,0.04 -3.32,0.12 -0.68,0.09 -1.03,0.31 -1.03,0.67 0,0.24 0.15,0.56 0.42,0.96 0.38,0.52 0.82,1.15 1.31,1.9 0.5,0.74 0.98,1.47 1.45,2.19 0.46,0.73 0.87,1.38 1.24,1.95 0.36,0.57 0.6,0.95 0.72,1.11 l 0.64,6.79 c 0,0.04 0.02,0.33 0.06,0.85 0.04,0.53 0.09,1.15 0.13,1.87 0.06,0.73 0.13,1.48 0.19,2.25 0.06,0.76 0.13,1.43 0.19,1.97 0.03,0.66 0.09,1.12 0.15,1.38 0.06,0.26 0.28,0.44 0.66,0.54 l 9.58,2.34 c 0.24,0.07 0.5,0.11 0.76,0.11 0.26,0 0.45,-0.07 0.53,-0.24 0.1,-0.16 0.15,-0.48 0.15,-0.97 -0.14,-1.36 -0.23,-2.59 -0.31,-3.69 -0.08,-1.12 -0.15,-2.15 -0.24,-3.11 -0.09,-0.96 -0.17,-1.87 -0.27,-2.73 -0.1,-0.87 -0.22,-1.75 -0.39,-2.65 l -0.57,-4.38 10.23,0.11 c 0.16,2.51 0.36,4.63 0.56,6.38 0.21,1.75 0.35,3.13 0.39,4.15 0.06,0.96 0.1,1.64 0.12,2.05 0.02,0.42 0.03,0.65 0.03,0.71 z m -92.93,-26.59 c 0,0.01 -0.01,0.03 -0.03,0.05 -0.02,0.02 -0.03,0.04 -0.03,0.06 0,0.32 0.17,0.48 0.51,0.48 0.16,0 0.36,-0.09 0.56,-0.26 1.02,-0.95 2.15,-1.72 3.39,-2.28 1.24,-0.56 2.6,-0.84 4.06,-0.84 0.39,0 0.85,0.03 1.36,0.12 0.51,0.09 0.99,0.23 1.44,0.42 0.45,0.21 0.83,0.46 1.14,0.78 0.31,0.32 0.46,0.72 0.46,1.21 0,0.54 -0.13,1.03 -0.39,1.47 -0.27,0.43 -0.62,0.8 -1.05,1.09 -0.17,0.12 -0.42,0.3 -0.76,0.56 -0.33,0.27 -0.72,0.57 -1.15,0.91 -0.43,0.33 -0.89,0.7 -1.36,1.08 -0.47,0.39 -0.92,0.75 -1.34,1.1 -0.43,0.34 -0.8,0.66 -1.14,0.94 -0.34,0.28 -0.59,0.5 -0.77,0.65 -1.1,0.82 -1.98,1.66 -2.63,2.51 -0.65,0.84 -1.15,1.72 -1.48,2.64 -0.34,0.92 -0.56,1.88 -0.65,2.86 -0.1,0.99 -0.14,2.02 -0.14,3.13 0,1.65 0.39,3.22 1.18,4.7 0.79,1.48 1.9,2.78 3.35,3.88 1.44,1.1 3.16,1.97 5.18,2.62 2.01,0.64 4.25,0.97 6.7,0.97 0.31,0 0.76,-0.03 1.36,-0.1 0.61,-0.07 1.26,-0.17 1.99,-0.33 0.72,-0.14 1.46,-0.35 2.21,-0.61 0.75,-0.26 1.44,-0.6 2.06,-1.01 0.2,-0.16 0.37,-0.3 0.49,-0.45 0.13,-0.16 0.2,-0.39 0.24,-0.71 0.09,-1.52 0.16,-3.01 0.22,-4.48 0.06,-1.47 0.14,-3.04 0.23,-4.69 0,-0.32 -0.06,-0.53 -0.2,-0.64 -0.13,-0.09 -0.3,-0.15 -0.51,-0.15 -0.2,0 -0.36,0.06 -0.47,0.17 -0.55,0.55 -1.12,1.08 -1.69,1.61 -0.59,0.53 -1.19,0.99 -1.84,1.39 -0.63,0.41 -1.32,0.74 -2.04,0.98 -0.72,0.24 -1.51,0.36 -2.35,0.36 -0.5,0 -1.01,-0.04 -1.52,-0.12 -0.51,-0.09 -0.98,-0.24 -1.39,-0.47 -0.4,-0.23 -0.74,-0.53 -0.99,-0.93 -0.26,-0.39 -0.38,-0.89 -0.38,-1.5 0,-0.63 0.07,-1.19 0.24,-1.66 0.16,-0.46 0.55,-0.91 1.2,-1.32 l 6.75,-4.6 c 1.24,-0.88 2.25,-1.76 3.02,-2.63 0.77,-0.88 1.37,-1.74 1.8,-2.61 0.43,-0.86 0.73,-1.71 0.88,-2.55 0.17,-0.83 0.24,-1.66 0.24,-2.47 0,-1.31 -0.21,-2.55 -0.64,-3.72 -0.43,-1.16 -1.03,-2.24 -1.78,-3.22 -0.75,-0.99 -1.63,-1.88 -2.64,-2.66 -0.99,-0.78 -2.07,-1.44 -3.22,-2 -1.14,-0.54 -2.33,-0.97 -3.56,-1.27 -1.23,-0.28 -2.44,-0.43 -3.62,-0.43 -0.91,0 -1.83,0.01 -2.71,0.04 -0.9,0.03 -1.76,0.11 -2.61,0.23 -0.85,0.12 -1.66,0.31 -2.45,0.57 -0.79,0.25 -1.54,0.6 -2.25,1.06 z m -32.32,12.84 c -0.07,-0.26 -0.21,-0.63 -0.42,-1.11 -0.2,-0.48 -0.44,-1.02 -0.72,-1.63 -0.27,-0.59 -0.56,-1.24 -0.87,-1.93 -0.31,-0.68 -0.61,-1.38 -0.92,-2.07 -0.11,-0.27 -0.21,-0.46 -0.31,-0.58 -0.09,-0.12 -0.24,-0.21 -0.45,-0.26 -0.2,-0.06 -0.49,-0.1 -0.85,-0.11 -0.37,-0.01 -0.88,-0.02 -1.54,-0.04 l -3.92,-0.09 -0.79,-8.56 h 14.46 v -1.1 c -0.04,-0.04 -0.2,-0.29 -0.48,-0.75 -0.28,-0.46 -0.61,-1.01 -0.98,-1.64 -0.38,-0.65 -0.78,-1.29 -1.19,-1.94 -0.41,-0.64 -0.77,-1.17 -1.04,-1.57 -0.19,-0.33 -0.41,-0.6 -0.65,-0.79 -0.25,-0.21 -0.51,-0.35 -0.81,-0.44 -0.29,-0.09 -0.6,-0.15 -0.95,-0.17 -0.35,-0.02 -0.73,-0.03 -1.14,-0.03 -1.7,0 -3.46,0.04 -5.28,0.12 -1.84,0.07 -3.67,0.16 -5.48,0.27 -1.83,0.12 -3.61,0.25 -5.34,0.38 -1.74,0.14 -3.35,0.29 -4.84,0.44 -0.13,0.02 -0.25,0.1 -0.35,0.22 -0.1,0.14 -0.15,0.28 -0.15,0.46 -0.08,0 -0.03,0.16 0.15,0.48 0.18,0.31 0.43,0.73 0.74,1.23 0.32,0.51 0.68,1.08 1.06,1.73 0.39,0.65 0.76,1.3 1.12,1.96 l 0.45,6.33 c 0.08,1.07 0.13,1.86 0.18,2.38 0.05,0.53 0.07,0.81 0.07,0.85 -1.13,0.02 -1.97,0.08 -2.52,0.17 -0.56,0.09 -0.83,0.3 -0.83,0.62 0,0.15 0.14,0.43 0.41,0.85 0.27,0.41 0.6,0.88 1,1.42 0.39,0.54 0.8,1.1 1.25,1.68 0.44,0.58 0.83,1.12 1.17,1.61 l 0.7,9.59 h -0.08 c -0.42,-0.02 -0.79,-0.04 -1.13,-0.05 -0.34,-0.01 -0.64,-0.01 -0.92,-0.01 -0.91,0 -1.55,0.05 -1.93,0.15 -0.39,0.11 -0.58,0.3 -0.58,0.58 0,0.13 0.11,0.4 0.33,0.82 0.23,0.41 0.51,0.88 0.85,1.42 0.34,0.54 0.69,1.1 1.07,1.69 0.37,0.59 0.71,1.15 1.02,1.65 l 1.68,2.87 h 11.78 l 13.89,1.02 c 0.02,0 0.08,0 0.15,-0.01 0.09,-0.01 0.19,-0.04 0.27,-0.08 0.1,-0.05 0.18,-0.13 0.27,-0.24 0.09,-0.12 0.13,-0.28 0.13,-0.48 l -0.43,-1.47 c -0.12,-0.41 -0.29,-0.85 -0.47,-1.32 -0.19,-0.46 -0.39,-0.93 -0.62,-1.42 l -1.24,-3.27 c -0.14,-0.32 -0.28,-0.56 -0.46,-0.73 -0.16,-0.16 -0.51,-0.26 -1.06,-0.28 -1.43,-0.04 -3.02,-0.09 -4.78,-0.18 -1.75,-0.09 -3.77,-0.16 -6.04,-0.24 -0.08,-0.26 -0.12,-0.47 -0.12,-0.64 0,-0.16 -0.02,-0.46 -0.06,-0.91 l -0.13,-1.3 c -0.04,-0.6 -0.1,-1.25 -0.17,-1.94 -0.08,-0.7 -0.17,-1.55 -0.28,-2.57 0.96,0.04 1.89,0.07 2.8,0.11 0.91,0.04 1.75,0.06 2.5,0.08 0.75,0.03 1.4,0.05 1.95,0.07 0.56,0.02 0.94,0.03 1.17,0.03 0.16,0 0.32,-0.06 0.51,-0.17 0.18,-0.11 0.28,-0.33 0.28,-0.65 0,-0.15 -0.03,-0.31 -0.09,-0.51 v 0"
       style="fill:#ff926b;fill-opacity:1;fill-rule:nonzero;stroke:none;stroke-width:0.1"
       id="path126" />
    <g
       id="g2198"
       inkscape:export-filename="\\wsl.localhost\Ubuntu-24.04\home\himanshu\WizToil\WizToilWeb\logo.png"
       inkscape:export-xdpi="76.1595"
       inkscape:export-ydpi="76.1595"
       transform="translate(5273.6128,-144.10907)">
      <g
         id="g518"
         transform="translate(-2346.3168,788.70503)">
        <path
           d="m 1000,1498.15 c 192.94,0 349.34,-156.41 349.34,-349.34 0,-192.94 -156.4,-349.34 -349.34,-349.34 -192.935,0 -349.34,156.4 -349.34,349.34 0,192.93 156.405,349.34 349.34,349.34"
           style="fill:#ff926b;fill-opacity:1;fill-rule:nonzero;stroke:none;stroke-width:0.1"
           id="path16" />
        <path
           d="m 832.02,1271.68 c -35.74,-12.34 -245.5,-93.88 -61.13,-252.05 -16.7,-7.8 -35.3,-10.78 -54.81,-7.36 42.42,-34.27 80.45,-36.53 109.19,-24.81 -17.27,-63 -13.98,-137.3 40.35,-180.44 -0.9,2.56 -1.57,6.06 -2.02,10.26 11.65,-32.64 36.61,-59.22 68.33,-82.42 -1.66,11.08 -3.56,23.64 -5.1,36.79 12.21,-19.77 34.13,-44.8 73.17,-67.34 39.04,22.54 60.96,47.57 73.17,67.34 -1.54,-13.15 -3.44,-25.71 -5.1,-36.79 31.72,23.2 56.68,49.78 68.33,82.42 -0.45,-4.2 -1.12,-7.7 -2.02,-10.26 54.33,43.14 57.62,117.44 40.35,180.44 28.74,-11.72 66.77,-9.46 109.19,24.81 -19.51,-3.42 -38.11,-0.44 -54.81,7.36 184.37,158.17 -25.39,239.71 -61.13,252.05 l -2.98,21.99 c -1.97,6.8 -11.67,14.02 -17.64,18.25 -4.3,324.09 -280.17,396.39 -299.3,81.16 6.79,13.37 18.25,38.4 35.21,61.87 -14,-42.02 -20.57,-88.92 -21.61,-137.25 -9.99,-5.82 -21.72,-13.19 -26.66,-24.03 l -2.98,-21.99 v 0"
           style="fill:#300c50;fill-opacity:1;fill-rule:nonzero;stroke:none;stroke-width:0.1"
           id="path20" />
        <path
           d="m 1173.7,1184.73 c 1.68,-8.38 2.25,-16.99 1.47,-25.6 -0.03,0.03 -9.95,19.27 -32.89,31.38 4.5,-27.11 17.29,-52.73 33.08,-72.24 9.3,22.86 11.32,48.39 1.23,63.04 -0.91,1.31 -1.88,2.46 -2.89,3.42 v 0"
           style="fill:#ffb28b;fill-opacity:1;fill-rule:nonzero;stroke:none;stroke-width:0.1"
           id="path22" />
        <path
           d="m 1159.29,1220.48 c 136.4,-28.63 172.31,-93.13 54.43,-191.95 -18.56,12.94 -33.91,32.16 -44.33,54.91 14.53,-4.12 31.09,-2.74 45.05,2.85 -8.85,3.83 -17.98,10.21 -26.68,18.48 14.45,31.03 17.18,64.88 2.59,86.04 -5.52,8.01 -13.59,13.68 -23.01,14.28 -2.28,5.34 -4.99,10.5 -8.05,15.39 v 0"
           style="fill:#c835f8;fill-opacity:1;fill-rule:nonzero;stroke:none;stroke-width:0.1"
           id="path24" />
        <path
           d="m 1077.04,1047.04 c -8.96,20.87 -25.82,40.43 -45.87,42.94 0.06,-0.04 19.97,-13.09 27.86,-37.98 -12.53,6.74 -53.2,14.82 -59.03,33.92 -5.83,-19.1 -46.5,-27.18 -59.03,-33.92 7.89,24.89 27.8,37.94 27.86,37.98 -20.05,-2.51 -36.91,-22.07 -45.87,-42.94 v 0 c -3.03,-2.79 -8.53,-7.88 -11.04,-10.63 4.89,30.41 20.94,47.14 21,47.19 -14.5,-7.38 -24.63,-19.98 -31.16,-34.64 10.51,46.62 57.26,60.59 98.24,44.33 40.98,16.26 87.73,2.29 98.24,-44.33 -6.53,14.66 -16.66,27.26 -31.16,34.64 0.06,-0.05 16.11,-16.78 21,-47.19 -2.51,2.75 -8.01,7.84 -11.04,10.63 v 0 0"
           style="fill:#c3ccd3;fill-opacity:1;fill-rule:nonzero;stroke:none;stroke-width:0.1"
           id="path26" />
        <path
           d="m 904.97,1088.92 c -37.23,26.09 -20.49,115.77 -15.23,139.74 70.06,9.02 150.45,9.02 220.51,0.02 5.26,-23.95 22.02,-113.66 -15.22,-139.76 -18.46,21.34 -46.89,32.41 -79.96,26.14 l -5.19,11.55 -9.88,22.02 -9.88,-22.02 -5.19,-11.55 c -33.07,6.27 -61.5,-4.79 -79.96,-26.14"
           style="fill:#ffb28b;fill-opacity:1;fill-rule:nonzero;stroke:none;stroke-width:0.1"
           id="path28" />
        <path
           d="m 872.14,1226.18 c -6.46,-32.72 -19.19,-120.77 23.2,-150.89 -9.65,-16.86 -14.34,-37.74 -12.44,-60.5 0.01,0.01 4.53,6.31 12.02,12.68 -2.49,-11.9 -3.15,-24.13 -2.28,-35.34 0.01,0.04 8.51,14.45 23.53,28.29 -0.21,-3.3 -0.12,-6.43 0.3,-9.32 19.18,28.42 64.37,33.53 83.53,52.02 19.16,-18.49 64.35,-23.6 83.53,-52.02 0.42,2.89 0.51,6.02 0.3,9.32 15.02,-13.84 23.52,-28.25 23.53,-28.29 0.87,11.21 0.21,23.44 -2.28,35.34 7.49,-6.37 12.01,-12.67 12.02,-12.68 1.9,22.76 -2.78,43.63 -12.43,60.48 42.4,30.13 29.65,118.19 23.19,150.91 2.38,-0.37 4.75,-0.75 7.1,-1.14 3.9,-4.62 12.26,-15.62 18.21,-30.98 -2.62,1.92 -8.79,5.24 -12.21,7.14 -0.18,2.13 -0.3,4.28 -0.37,6.43 -12.92,-41.46 10.07,-92.07 21.19,-105.35 -7.09,1.63 -21.36,7.84 -26.56,15.56 2.28,-8.57 6.24,-15.5 11.35,-20.93 0.09,-0.28 24.8,-75.57 84.66,-97.2 -30.38,-5.46 -82.67,-0.32 -111.11,54.35 1.51,-17.76 14.24,-40.21 34.92,-55.49 4.42,-14.19 27.91,-96.92 -5.9,-151.97 -2.21,28.12 -12.74,73.03 -34.39,82.6 30.73,-46.09 11.2,-120.2 -25.39,-156.26 1.26,34.01 -3.48,68.65 -18.58,88.28 4.15,-14.24 5.53,-30.73 5.35,-47.7 -4.3,-13.08 -21.79,-55.25 -76.13,-89.64 -54.34,34.39 -71.83,76.56 -76.13,89.64 -0.18,16.97 1.2,33.46 5.35,47.7 -15.1,-19.63 -19.84,-54.27 -18.58,-88.28 -36.59,36.06 -56.12,110.17 -25.39,156.26 -21.65,-9.57 -32.18,-54.48 -34.39,-82.6 -33.81,55.05 -10.32,137.78 -5.9,151.97 20.68,15.28 33.41,37.73 34.92,55.49 -28.44,-54.67 -80.73,-59.81 -111.11,-54.35 59.86,21.63 84.57,96.92 84.66,97.2 5.11,5.43 9.07,12.36 11.35,20.93 -5.2,-7.72 -19.47,-13.93 -26.56,-15.56 11.12,13.28 34.11,63.89 21.19,105.35 -0.07,-2.15 -0.19,-4.3 -0.37,-6.43 -3.42,-1.9 -9.59,-5.22 -12.21,-7.14 5.95,15.35 14.3,26.35 18.2,30.98 2.35,0.39 4.73,0.77 7.11,1.14 v 0"
           style="fill:#c3ccd3;fill-opacity:1;fill-rule:nonzero;stroke:none;stroke-width:0.1"
           id="path30" />
        <path
           d="m 824.64,1118.27 c -9.3,22.86 -11.32,48.39 -1.23,63.04 0.91,1.31 1.88,2.46 2.89,3.42 -1.68,-8.38 -2.25,-16.99 -1.47,-25.6 0.03,0.03 9.95,19.27 32.89,31.38 -4.5,-27.11 -17.29,-52.73 -33.08,-72.24 v 0"
           style="fill:#ffb28b;fill-opacity:1;fill-rule:nonzero;stroke:none;stroke-width:0.1"
           id="path32" />
        <path
           d="m 832.66,1205.09 c -15.97,-1.02 -26.37,-15.62 -30.36,-30.77 -4.57,-17.36 -3.03,-41.7 9.94,-69.55 -8.7,-8.27 -17.83,-14.65 -26.68,-18.48 13.96,-5.59 30.52,-6.97 45.05,-2.85 -10.42,-22.76 -25.77,-41.99 -44.34,-54.92 -117.91,98.83 -81.96,163.3 54.43,191.95 -3.05,-4.89 -5.76,-10.04 -8.04,-15.38 v 0"
           style="fill:#c835f8;fill-opacity:1;fill-rule:nonzero;stroke:none;stroke-width:0.1"
           id="path34" />
        <path
           d="m 1027.71,1351.17 c -24.63,24.63 -66.9,7.09 -66.9,-27.71 0,-34.8 42.27,-52.33 66.9,-27.71 15.3,15.31 15.3,40.12 0,55.42 v 0"
           style="fill:#f9b32f;fill-opacity:1;fill-rule:nonzero;stroke:none;stroke-width:0.1"
           id="path36" />
        <path
           d="m 946.75,1306.17 c -2.14,6.61 -3.06,13.68 -2.61,20.84 -38.89,-6.12 -73.19,-18.87 -92.92,-38.26 l -1.15,-8.51 c 27.63,13 61.18,21.65 96.68,25.93"
           style="fill:#f9b32f;fill-opacity:1;fill-rule:nonzero;stroke:none;stroke-width:0.1"
           id="path38" />
        <path
           d="m 1043.19,1287.86 c -22.41,-27.13 -63.96,-27.15 -86.36,-0.02 -61.09,-6.49 -159.98,-39.09 -205.86,-80.64 115.17,60.01 382.77,60.03 498,0.03 -45.87,41.51 -144.73,74.15 -205.78,80.63"
           style="fill:#c835f8;fill-opacity:1;fill-rule:nonzero;stroke:none;stroke-width:0.1"
           id="path40" />
        <path
           d="m 1055.86,1327.01 c 0.45,-7.16 -0.47,-14.23 -2.61,-20.84 35.5,-4.28 69.05,-12.93 96.68,-25.93 l -1.15,8.51 c -19.73,19.39 -54.03,32.14 -92.92,38.26"
           style="fill:#f9b32f;fill-opacity:1;fill-rule:nonzero;stroke:none;stroke-width:0.1"
           id="path42" />
        <path
           d="m 1000,1379.43 c 23.27,0 43.63,-14.28 52,-35.22 29.55,-3.98 57.01,-11.43 78.69,-22.36 -3.91,254.29 -201.26,347.5 -258.36,145.92 21.77,31.82 76.08,65.57 111.51,41.28 -27.32,3.88 -50.18,-5.3 -69.04,-20.2 l 0.48,-0.24 c -23.98,-47.2 -34.57,-104.81 -36.65,-162.43 19.99,8.6 43.9,14.6 69.37,18.03 8.36,20.94 28.74,35.22 52,35.22 v 0"
           style="fill:#c835f8;fill-opacity:1;fill-rule:nonzero;stroke:none;stroke-width:0.1"
           id="path44" />
        <path
           d="m 1108.47,1201.75 c 0,0 -20.88,14.04 -49.72,5.32 -9.87,-2.99 -11.1,12.38 -0.59,14.82 17.99,4.19 40.44,-4.02 50.31,-20.14 v 0"
           style="fill:#300c50;fill-opacity:1;fill-rule:nonzero;stroke:none;stroke-width:0.1"
           id="path46" />
        <path
           d="m 891.53,1201.75 c 0,0 20.88,14.04 49.72,5.32 9.87,-2.99 11.1,12.38 0.59,14.82 -17.99,4.19 -40.44,-4.02 -50.31,-20.14"
           style="fill:#300c50;fill-opacity:1;fill-rule:nonzero;stroke:none;stroke-width:0.1"
           id="path48" />
        <path
           d="m 1109.05,1173.25 c -12.41,-30.22 -58.83,-37.18 -58.83,-4.74 0,35.74 45.76,17.81 58.83,4.74"
           style="fill:#300c50;fill-opacity:1;fill-rule:nonzero;stroke:none;stroke-width:0.1"
           id="path50" />
        <path
           d="m 1098.41,1171.07 c -4.45,3.03 -9.93,5.59 -14.29,7.15 -5.52,1.97 -16.22,4.7 -21.59,1.14 -3.35,-2.23 -3.89,-7.2 -3.89,-10.85 0,-3.91 0.87,-8.09 4.19,-10.54 5.17,-3.81 13.65,-2.38 19.16,-0.18 6.63,2.64 12.5,7.32 16.42,13.28 v 0"
           style="fill:#fdfefd;fill-opacity:1;fill-rule:nonzero;stroke:none;stroke-width:0.1"
           id="path52" />
        <path
           d="m 1074.61,1183.71 c 6.16,0 11.15,-6.88 11.15,-15.36 0,-8.48 -4.99,-15.36 -11.15,-15.36 -6.16,0 -11.15,6.88 -11.15,15.36 0,8.48 4.99,15.36 11.15,15.36"
           style="fill:#300c50;fill-opacity:1;fill-rule:nonzero;stroke:none;stroke-width:0.1"
           id="path54" />
        <path
           d="m 890.95,1173.25 c 12.41,-30.22 58.83,-37.18 58.83,-4.74 0,35.74 -45.76,17.81 -58.83,4.74"
           style="fill:#300c50;fill-opacity:1;fill-rule:nonzero;stroke:none;stroke-width:0.1"
           id="path56" />
        <path
           d="m 901.59,1171.07 c 4.45,3.03 9.93,5.59 14.29,7.15 5.52,1.97 16.22,4.7 21.59,1.14 3.35,-2.23 3.89,-7.2 3.89,-10.85 0,-3.91 -0.87,-8.09 -4.19,-10.54 -5.17,-3.81 -13.65,-2.38 -19.16,-0.18 -6.63,2.64 -12.5,7.32 -16.42,13.28 v 0"
           style="fill:#fdfefd;fill-opacity:1;fill-rule:nonzero;stroke:none;stroke-width:0.1"
           id="path58" />
        <path
           d="m 1070.78,861.22 c 0,0 4.11,-60.09 -70.78,-96.59 -74.89,36.5 -70.78,96.59 -70.78,96.59 -4.15,-14.24 -5.53,-30.73 -5.35,-47.7 4.3,-13.08 21.79,-55.25 76.13,-89.64 54.34,34.39 71.83,76.56 76.13,89.64 0.18,16.97 -1.2,33.46 -5.35,47.7"
           style="fill:#98a5b6;fill-opacity:1;fill-rule:nonzero;stroke:none;stroke-width:0.1"
           id="path60" />
        <path
           d="m 1070.78,861.22 c 15.1,-19.63 19.84,-54.27 18.58,-88.28 36.59,36.06 56.12,110.17 25.39,156.26 0,0 16.84,-68.4 -13.42,-114.63 0,0 -7.4,32.89 -30.55,46.65 v 0"
           style="fill:#98a5b6;fill-opacity:1;fill-rule:nonzero;stroke:none;stroke-width:0.1"
           id="path62" />
        <path
           d="m 1114.75,929.2 c 21.65,-9.57 32.18,-54.48 34.39,-82.6 33.81,55.05 10.32,137.78 5.9,151.97 0,0 11.74,-58.63 -2.52,-98.91 0,0 -9.75,19.63 -37.77,29.54"
           style="fill:#98a5b6;fill-opacity:1;fill-rule:nonzero;stroke:none;stroke-width:0.1"
           id="path64" />
        <path
           d="m 1120.12,1054.06 c 28.44,-54.67 80.73,-59.81 111.11,-54.35 -59.86,21.63 -84.57,96.92 -84.66,97.2 0,0 0.55,-42.43 34.98,-78.93 0,0 -34.75,5.87 -61.43,36.08 v 0"
           style="fill:#98a5b6;fill-opacity:1;fill-rule:nonzero;stroke:none;stroke-width:0.1"
           id="path66" />
        <path
           d="m 1199.71,1147.8 c 100.74,2.61 56.7,-77.31 56.7,-77.31 62.23,75.32 18.92,125.64 -97.12,149.99 3.06,-4.89 5.77,-10.05 8.05,-15.39 9.42,-0.6 17.49,-6.27 23.01,-14.28 7.89,-11.44 10.71,-26.6 9.36,-43.01 v 0"
           style="fill:#ab2fd4;fill-opacity:1;fill-rule:nonzero;stroke:none;stroke-width:0.1"
           id="path68" />
        <path
           d="m 1031.17,1089.98 c 0,0 9.4,-9.73 12.09,-22.49 0,0 -33.65,2.61 -43.26,18.43 5.83,-19.1 46.5,-27.18 59.03,-33.92 -7.89,24.89 -27.8,37.94 -27.86,37.98"
           style="fill:#98a5b6;fill-opacity:1;fill-rule:nonzero;stroke:none;stroke-width:0.1"
           id="path70" />
        <path
           d="m 1037.46,1088.61 c 17.26,-5.32 31.58,-22.92 39.58,-41.57 3.03,-2.79 8.53,-7.88 11.04,-10.63 -4.89,30.41 -20.94,47.14 -21,47.19 5.7,-9.4 7.23,-21.15 7.23,-21.15 -11.25,20.14 -36.85,26.16 -36.85,26.16 v 0"
           style="fill:#98a5b6;fill-opacity:1;fill-rule:nonzero;stroke:none;stroke-width:0.1"
           id="path72" />
        <path
           d="m 1067.08,1083.6 c 14.5,-7.38 24.63,-19.98 31.16,-34.64 -4.96,21.99 -17.98,36.71 -34.64,44.43 13.67,-6.47 20.78,-19.69 20.78,-19.69 -8.56,6.71 -17.3,9.9 -17.3,9.9"
           style="fill:#98a5b6;fill-opacity:1;fill-rule:nonzero;stroke:none;stroke-width:0.1"
           id="path74" />
        <path
           d="m 1051.31,1215.95 c 0.95,2.67 3.18,5.09 6.85,5.94 17.99,4.19 40.44,-4.02 50.31,-20.14 0,0 -20.88,14.04 -49.72,5.32 -2.81,-0.85 -4.92,-0.21 -6.26,1.19 0,0 4.36,-9.02 12.59,-9.02 0,0 36.73,8.21 52.35,-16.88 -1.8,20.02 -5.26,37.56 -7.18,46.32 -35.03,4.5 -72.64,6.75 -110.25,6.75 -37.61,0 -75.22,-2.25 -110.25,-6.75 -1.92,-8.76 -5.38,-26.3 -7.18,-46.32 15.62,25.09 52.35,16.88 52.35,16.88 8.23,0 12.59,9.02 12.59,9.02 -1.34,-1.4 -3.45,-2.04 -6.26,-1.19 -28.84,8.72 -49.72,-5.32 -49.72,-5.32 9.87,16.12 32.32,24.33 50.31,20.14 3.67,-0.85 5.9,-3.27 6.85,-5.94 15.8,7.71 86.82,7.71 102.62,0"
           style="fill:#f3825b;fill-opacity:1;fill-rule:nonzero;stroke:none;stroke-width:0.1"
           id="path76" />
        <path
           d="m 1036.19,1280.76 c 135.59,-14.15 212.78,-73.53 212.78,-73.53 -45.87,41.51 -144.73,74.15 -205.78,80.63 -2.17,-2.62 -4.51,-4.99 -7,-7.1"
           style="fill:#f98afe;fill-opacity:1;fill-rule:nonzero;stroke:none;stroke-width:0.1"
           id="path78" />
        <path
           d="m 929.22,861.22 c -15.1,-19.63 -19.84,-54.27 -18.58,-88.28 -36.59,36.06 -56.12,110.17 -25.39,156.26 0,0 -16.84,-68.4 13.42,-114.63 0,0 7.4,32.89 30.55,46.65 v 0"
           style="fill:#98a5b6;fill-opacity:1;fill-rule:nonzero;stroke:none;stroke-width:0.1"
           id="path80" />
        <path
           d="m 885.25,929.2 c -21.65,-9.57 -32.18,-54.48 -34.39,-82.6 -33.81,55.05 -10.32,137.78 -5.9,151.97 0,0 -11.74,-58.63 2.52,-98.91 0,0 9.75,19.63 37.77,29.54"
           style="fill:#98a5b6;fill-opacity:1;fill-rule:nonzero;stroke:none;stroke-width:0.1"
           id="path82" />
        <path
           d="m 879.88,1054.06 c -28.44,-54.67 -80.73,-59.81 -111.11,-54.35 59.86,21.63 84.57,96.92 84.66,97.2 0,0 -0.55,-42.43 -34.98,-78.93 0,0 34.75,5.87 61.43,36.08 v 0"
           style="fill:#98a5b6;fill-opacity:1;fill-rule:nonzero;stroke:none;stroke-width:0.1"
           id="path84" />
        <path
           d="m 800.29,1147.8 c -100.74,2.61 -56.7,-77.31 -56.7,-77.31 -62.23,75.32 -18.92,125.64 97.12,149.99 -3.06,-4.89 -5.77,-10.05 -8.05,-15.39 -9.42,-0.6 -17.49,-6.27 -23.01,-14.28 -7.89,-11.44 -10.71,-26.6 -9.36,-43.01 v 0"
           style="fill:#ab2fd4;fill-opacity:1;fill-rule:nonzero;stroke:none;stroke-width:0.1"
           id="path86" />
        <path
           d="m 968.83,1089.98 c 0,0 -9.4,-9.73 -12.09,-22.49 0,0 33.65,2.61 43.26,18.43 -5.83,-19.1 -46.5,-27.18 -59.03,-33.92 7.89,24.89 27.8,37.94 27.86,37.98 v 0"
           style="fill:#98a5b6;fill-opacity:1;fill-rule:nonzero;stroke:none;stroke-width:0.1"
           id="path88" />
        <path
           d="m 962.54,1088.61 c -17.26,-5.32 -31.58,-22.92 -39.58,-41.57 -3.03,-2.79 -8.53,-7.88 -11.04,-10.63 4.89,30.41 20.94,47.14 21,47.19 -5.7,-9.4 -7.23,-21.15 -7.23,-21.15 11.25,20.14 36.85,26.16 36.85,26.16 v 0"
           style="fill:#98a5b6;fill-opacity:1;fill-rule:nonzero;stroke:none;stroke-width:0.1"
           id="path90" />
        <path
           d="m 932.92,1083.6 c -14.5,-7.38 -24.63,-19.98 -31.16,-34.64 4.96,21.99 17.98,36.71 34.64,44.43 -13.67,-6.47 -20.78,-19.69 -20.78,-19.69 8.56,6.71 17.3,9.9 17.3,9.9"
           style="fill:#98a5b6;fill-opacity:1;fill-rule:nonzero;stroke:none;stroke-width:0.1"
           id="path92" />
        <path
           d="m 963.81,1280.76 c -135.59,-14.15 -212.78,-73.53 -212.78,-73.53 45.87,41.51 144.73,74.15 205.78,80.63 2.17,-2.62 4.51,-4.99 7,-7.1 v 0"
           style="fill:#f98afe;fill-opacity:1;fill-rule:nonzero;stroke:none;stroke-width:0.1"
           id="path94" />
        <path
           d="m 872.33,1467.77 c 3.48,5.09 7.79,10.22 12.72,15.16 46.55,120.31 151.5,106.72 209.67,1.38 -60.5,120.31 -180.03,132.99 -222.39,-16.54 v 0"
           style="fill:#f98afe;fill-opacity:1;fill-rule:nonzero;stroke:none;stroke-width:0.1"
           id="path96" />
        <path
           d="m 1127.39,1304.39 c 0,0 -3.87,-9.62 -72.37,8.73 -0.44,-2.36 -1.04,-4.68 -1.77,-6.95 35.5,-4.28 69.05,-12.93 96.68,-25.93 l -1.15,8.51 c -5.91,5.81 -13.13,11.02 -21.39,15.64"
           style="fill:#e67e22;fill-opacity:1;fill-rule:nonzero;stroke:none;stroke-width:0.1"
           id="path98" />
        <path
           d="m 1027.71,1305.74 c -23.42,-23.42 -62.8,-8.71 -66.6,22.71 -0.2,-1.62 -0.3,-3.28 -0.3,-4.99 0,-34.8 42.27,-52.33 66.9,-27.71 8.92,8.93 12.64,21.08 11.16,32.7 -1.06,-8.3 -4.78,-16.34 -11.16,-22.71"
           style="fill:#e67e22;fill-opacity:1;fill-rule:nonzero;stroke:none;stroke-width:0.1"
           id="path100" />
        <path
           d="m 872.61,1304.39 c 0,0 3.87,-9.62 72.37,8.73 0.44,-2.36 1.04,-4.68 1.77,-6.95 -35.5,-4.28 -69.05,-12.93 -96.68,-25.93 l 1.15,8.51 c 5.91,5.81 13.13,11.02 21.39,15.64 v 0"
           style="fill:#e67e22;fill-opacity:1;fill-rule:nonzero;stroke:none;stroke-width:0.1"
           id="path102" />
        <path
           d="m 925.39,1183.71 c 6.158,0 11.15,-6.88 11.15,-15.36 0,-8.48 -4.992,-15.36 -11.15,-15.36 -6.158,0 -11.15,6.88 -11.15,15.36 0,8.48 4.992,15.36 11.15,15.36"
           style="fill:#300c50;fill-opacity:1;fill-rule:nonzero;stroke:none;stroke-width:0.1"
           id="path104" />
        <path
           d="m 920.9,1182.79 c 2.96,0 5.36,-3.31 5.36,-7.39 0,-4.08 -2.4,-7.39 -5.36,-7.39 -2.96,0 -5.36,3.31 -5.36,7.39 0,4.08 2.4,7.39 5.36,7.39"
           style="fill:#fdfefd;fill-opacity:1;fill-rule:nonzero;stroke:none;stroke-width:0.1"
           id="path106" />
        <path
           d="m 929.63,1165.83 c 1.447,0 2.62,-1.61 2.62,-3.6 0,-1.99 -1.173,-3.6 -2.62,-3.6 -1.447,0 -2.62,1.61 -2.62,3.6 0,1.99 1.173,3.6 2.62,3.6"
           style="fill:#fdfefd;fill-opacity:1;fill-rule:nonzero;stroke:none;stroke-width:0.1"
           id="path108" />
        <path
           d="m 1070.13,1182.79 c 2.96,0 5.36,-3.31 5.36,-7.39 0,-4.08 -2.4,-7.39 -5.36,-7.39 -2.96,0 -5.36,3.31 -5.36,7.39 0,4.08 2.4,7.39 5.36,7.39"
           style="fill:#fdfefd;fill-opacity:1;fill-rule:nonzero;stroke:none;stroke-width:0.1"
           id="path110" />
        <path
           d="m 1078.85,1165.83 c 1.45,0 2.62,-1.61 2.62,-3.6 0,-1.99 -1.17,-3.6 -2.62,-3.6 -1.45,0 -2.62,1.61 -2.62,3.6 0,1.99 1.17,3.6 2.62,3.6"
           style="fill:#fdfefd;fill-opacity:1;fill-rule:nonzero;stroke:none;stroke-width:0.1"
           id="path112" />
        <path
           d="m 1117.01,1133.52 c -14.11,-49.48 -55.96,3.28 -101.94,-18.46 33.07,6.27 61.5,-4.8 79.96,-26.14 12.89,9.03 19.31,25.69 21.98,44.6 v 0"
           style="fill:#f3825b;fill-opacity:1;fill-rule:nonzero;stroke:none;stroke-width:0.1"
           id="path114" />
        <path
           d="m 882.99,1133.52 c 14.11,-49.48 55.96,3.28 101.94,-18.46 -33.07,6.27 -61.5,-4.8 -79.96,-26.14 -12.89,9.03 -19.31,25.69 -21.98,44.6 v 0"
           style="fill:#f3825b;fill-opacity:1;fill-rule:nonzero;stroke:none;stroke-width:0.1"
           id="path116" />
        <path
           d="m 1162.06,1137.43 c -2.04,24.79 21.02,12.46 21.02,12.46 0.91,12.24 -1,23.44 -6.49,31.42 -0.91,1.31 -1.88,2.46 -2.89,3.42 1.68,-8.38 2.25,-16.99 1.47,-25.6 -0.03,0.03 -9.95,19.27 -32.89,31.38 3.14,-18.95 10.34,-37.17 19.78,-53.08"
           style="fill:#f3825b;fill-opacity:1;fill-rule:nonzero;stroke:none;stroke-width:0.1"
           id="path118" />
        <path
           d="m 837.94,1137.43 c 2.04,24.79 -21.02,12.46 -21.02,12.46 -0.91,12.24 1,23.44 6.49,31.42 0.91,1.31 1.88,2.46 2.89,3.42 -1.68,-8.38 -2.25,-16.99 -1.47,-25.6 0.03,0.03 9.95,19.27 32.89,31.38 -3.14,-18.95 -10.34,-37.17 -19.78,-53.08"
           style="fill:#f3825b;fill-opacity:1;fill-rule:nonzero;stroke:none;stroke-width:0.1"
           id="path120" />
      </g>
      <g
         id="g2138"
         transform="translate(-1906.524,-397.27363)">
        <text
           xml:space="preserve"
           style="font-weight:bold;font-size:283.465px;font-family:'Maiandra GD';-inkscape-font-specification:'Maiandra GD Bold';fill:#300c50;fill-opacity:1;stroke-width:2.83465"
           x="64.264854"
           y="-1491.7235"
           id="text574"
           transform="scale(1,-1)"><tspan
             sodipodi:role="line"
             id="tspan572"
             style="font-style:normal;font-variant:normal;font-weight:bold;font-stretch:normal;font-family:Chatkids;-inkscape-font-specification:'Chatkids Bold';fill:#300c50;fill-opacity:1;stroke-width:2.83465"
             x="64.264854"
             y="-1491.7235">WIZTOIL</tspan></text>
        <text
           xml:space="preserve"
           style="font-style:normal;font-variant:normal;font-weight:bold;font-stretch:normal;font-size:70.8661px;font-family:Chatkids;-inkscape-font-specification:'Chatkids Bold';fill:#ff926b;fill-opacity:0.819608;stroke-width:2.83465"
           x="96.93792"
           y="-1402.1423"
           id="text1232"
           transform="scale(1,-1)"><tspan
             sodipodi:role="line"
             id="tspan1230"
             style="font-size:70.8661px;fill:#ff926b;fill-opacity:0.819608;stroke-width:2.83465"
             x="96.93792"
             y="-1402.1423">Smarter Work, More Freedom</tspan></text>
      </g>
    </g>
    <g
       id="g1251"
       inkscape:export-filename="..\favicon.png"
       inkscape:export-xdpi="8.1920004"
       inkscape:export-ydpi="8.1920004">
      <rect
         style="fill:none;fill-opacity:0.819608;stroke-width:2.78493"
         id="rect587"
         width="1125"
         height="1125"
         x="134.29761"
         y="-2308.7317"
         transform="scale(1,-1)" />
      <g
         id="g463"
         transform="matrix(1.195886,0,0,1.195886,-499.0884,370.97494)">
        <path
           d="m 1000,1498.15 c 192.94,0 349.34,-156.41 349.34,-349.34 0,-192.94 -156.4,-349.34 -349.34,-349.34 -192.935,0 -349.34,156.4 -349.34,349.34 0,192.93 156.405,349.34 349.34,349.34"
           style="fill:#ff926b;fill-opacity:1;fill-rule:nonzero;stroke:none;stroke-width:0.1"
           id="path359" />
        <path
           d="m 832.02,1271.68 c -35.74,-12.34 -245.5,-93.88 -61.13,-252.05 -16.7,-7.8 -35.3,-10.78 -54.81,-7.36 42.42,-34.27 80.45,-36.53 109.19,-24.81 -17.27,-63 -13.98,-137.3 40.35,-180.44 -0.9,2.56 -1.57,6.06 -2.02,10.26 11.65,-32.64 36.61,-59.22 68.33,-82.42 -1.66,11.08 -3.56,23.64 -5.1,36.79 12.21,-19.77 34.13,-44.8 73.17,-67.34 39.04,22.54 60.96,47.57 73.17,67.34 -1.54,-13.15 -3.44,-25.71 -5.1,-36.79 31.72,23.2 56.68,49.78 68.33,82.42 -0.45,-4.2 -1.12,-7.7 -2.02,-10.26 54.33,43.14 57.62,117.44 40.35,180.44 28.74,-11.72 66.77,-9.46 109.19,24.81 -19.51,-3.42 -38.11,-0.44 -54.81,7.36 184.37,158.17 -25.39,239.71 -61.13,252.05 l -2.98,21.99 c -1.97,6.8 -11.67,14.02 -17.64,18.25 -4.3,324.09 -280.17,396.39 -299.3,81.16 6.79,13.37 18.25,38.4 35.21,61.87 -14,-42.02 -20.57,-88.92 -21.61,-137.25 -9.99,-5.82 -21.72,-13.19 -26.66,-24.03 l -2.98,-21.99 v 0"
           style="fill:#300c50;fill-opacity:1;fill-rule:nonzero;stroke:none;stroke-width:0.1"
           id="path361" />
        <path
           d="m 1173.7,1184.73 c 1.68,-8.38 2.25,-16.99 1.47,-25.6 -0.03,0.03 -9.95,19.27 -32.89,31.38 4.5,-27.11 17.29,-52.73 33.08,-72.24 9.3,22.86 11.32,48.39 1.23,63.04 -0.91,1.31 -1.88,2.46 -2.89,3.42 v 0"
           style="fill:#ffb28b;fill-opacity:1;fill-rule:nonzero;stroke:none;stroke-width:0.1"
           id="path363" />
        <path
           d="m 1159.29,1220.48 c 136.4,-28.63 172.31,-93.13 54.43,-191.95 -18.56,12.94 -33.91,32.16 -44.33,54.91 14.53,-4.12 31.09,-2.74 45.05,2.85 -8.85,3.83 -17.98,10.21 -26.68,18.48 14.45,31.03 17.18,64.88 2.59,86.04 -5.52,8.01 -13.59,13.68 -23.01,14.28 -2.28,5.34 -4.99,10.5 -8.05,15.39 v 0"
           style="fill:#c835f8;fill-opacity:1;fill-rule:nonzero;stroke:none;stroke-width:0.1"
           id="path365" />
        <path
           d="m 1077.04,1047.04 c -8.96,20.87 -25.82,40.43 -45.87,42.94 0.06,-0.04 19.97,-13.09 27.86,-37.98 -12.53,6.74 -53.2,14.82 -59.03,33.92 -5.83,-19.1 -46.5,-27.18 -59.03,-33.92 7.89,24.89 27.8,37.94 27.86,37.98 -20.05,-2.51 -36.91,-22.07 -45.87,-42.94 v 0 c -3.03,-2.79 -8.53,-7.88 -11.04,-10.63 4.89,30.41 20.94,47.14 21,47.19 -14.5,-7.38 -24.63,-19.98 -31.16,-34.64 10.51,46.62 57.26,60.59 98.24,44.33 40.98,16.26 87.73,2.29 98.24,-44.33 -6.53,14.66 -16.66,27.26 -31.16,34.64 0.06,-0.05 16.11,-16.78 21,-47.19 -2.51,2.75 -8.01,7.84 -11.04,10.63 v 0 0"
           style="fill:#c3ccd3;fill-opacity:1;fill-rule:nonzero;stroke:none;stroke-width:0.1"
           id="path367" />
        <path
           d="m 904.97,1088.92 c -37.23,26.09 -20.49,115.77 -15.23,139.74 70.06,9.02 150.45,9.02 220.51,0.02 5.26,-23.95 22.02,-113.66 -15.22,-139.76 -18.46,21.34 -46.89,32.41 -79.96,26.14 l -5.19,11.55 -9.88,22.02 -9.88,-22.02 -5.19,-11.55 c -33.07,6.27 -61.5,-4.79 -79.96,-26.14"
           style="fill:#ffb28b;fill-opacity:1;fill-rule:nonzero;stroke:none;stroke-width:0.1"
           id="path369" />
        <path
           d="m 872.14,1226.18 c -6.46,-32.72 -19.19,-120.77 23.2,-150.89 -9.65,-16.86 -14.34,-37.74 -12.44,-60.5 0.01,0.01 4.53,6.31 12.02,12.68 -2.49,-11.9 -3.15,-24.13 -2.28,-35.34 0.01,0.04 8.51,14.45 23.53,28.29 -0.21,-3.3 -0.12,-6.43 0.3,-9.32 19.18,28.42 64.37,33.53 83.53,52.02 19.16,-18.49 64.35,-23.6 83.53,-52.02 0.42,2.89 0.51,6.02 0.3,9.32 15.02,-13.84 23.52,-28.25 23.53,-28.29 0.87,11.21 0.21,23.44 -2.28,35.34 7.49,-6.37 12.01,-12.67 12.02,-12.68 1.9,22.76 -2.78,43.63 -12.43,60.48 42.4,30.13 29.65,118.19 23.19,150.91 2.38,-0.37 4.75,-0.75 7.1,-1.14 3.9,-4.62 12.26,-15.62 18.21,-30.98 -2.62,1.92 -8.79,5.24 -12.21,7.14 -0.18,2.13 -0.3,4.28 -0.37,6.43 -12.92,-41.46 10.07,-92.07 21.19,-105.35 -7.09,1.63 -21.36,7.84 -26.56,15.56 2.28,-8.57 6.24,-15.5 11.35,-20.93 0.09,-0.28 24.8,-75.57 84.66,-97.2 -30.38,-5.46 -82.67,-0.32 -111.11,54.35 1.51,-17.76 14.24,-40.21 34.92,-55.49 4.42,-14.19 27.91,-96.92 -5.9,-151.97 -2.21,28.12 -12.74,73.03 -34.39,82.6 30.73,-46.09 11.2,-120.2 -25.39,-156.26 1.26,34.01 -3.48,68.65 -18.58,88.28 4.15,-14.24 5.53,-30.73 5.35,-47.7 -4.3,-13.08 -21.79,-55.25 -76.13,-89.64 -54.34,34.39 -71.83,76.56 -76.13,89.64 -0.18,16.97 1.2,33.46 5.35,47.7 -15.1,-19.63 -19.84,-54.27 -18.58,-88.28 -36.59,36.06 -56.12,110.17 -25.39,156.26 -21.65,-9.57 -32.18,-54.48 -34.39,-82.6 -33.81,55.05 -10.32,137.78 -5.9,151.97 20.68,15.28 33.41,37.73 34.92,55.49 -28.44,-54.67 -80.73,-59.81 -111.11,-54.35 59.86,21.63 84.57,96.92 84.66,97.2 5.11,5.43 9.07,12.36 11.35,20.93 -5.2,-7.72 -19.47,-13.93 -26.56,-15.56 11.12,13.28 34.11,63.89 21.19,105.35 -0.07,-2.15 -0.19,-4.3 -0.37,-6.43 -3.42,-1.9 -9.59,-5.22 -12.21,-7.14 5.95,15.35 14.3,26.35 18.2,30.98 2.35,0.39 4.73,0.77 7.11,1.14 v 0"
           style="fill:#c3ccd3;fill-opacity:1;fill-rule:nonzero;stroke:none;stroke-width:0.1"
           id="path371" />
        <path
           d="m 824.64,1118.27 c -9.3,22.86 -11.32,48.39 -1.23,63.04 0.91,1.31 1.88,2.46 2.89,3.42 -1.68,-8.38 -2.25,-16.99 -1.47,-25.6 0.03,0.03 9.95,19.27 32.89,31.38 -4.5,-27.11 -17.29,-52.73 -33.08,-72.24 v 0"
           style="fill:#ffb28b;fill-opacity:1;fill-rule:nonzero;stroke:none;stroke-width:0.1"
           id="path373" />
        <path
           d="m 832.66,1205.09 c -15.97,-1.02 -26.37,-15.62 -30.36,-30.77 -4.57,-17.36 -3.03,-41.7 9.94,-69.55 -8.7,-8.27 -17.83,-14.65 -26.68,-18.48 13.96,-5.59 30.52,-6.97 45.05,-2.85 -10.42,-22.76 -25.77,-41.99 -44.34,-54.92 -117.91,98.83 -81.96,163.3 54.43,191.95 -3.05,-4.89 -5.76,-10.04 -8.04,-15.38 v 0"
           style="fill:#c835f8;fill-opacity:1;fill-rule:nonzero;stroke:none;stroke-width:0.1"
           id="path375" />
        <path
           d="m 1027.71,1351.17 c -24.63,24.63 -66.9,7.09 -66.9,-27.71 0,-34.8 42.27,-52.33 66.9,-27.71 15.3,15.31 15.3,40.12 0,55.42 v 0"
           style="fill:#f9b32f;fill-opacity:1;fill-rule:nonzero;stroke:none;stroke-width:0.1"
           id="path377" />
        <path
           d="m 946.75,1306.17 c -2.14,6.61 -3.06,13.68 -2.61,20.84 -38.89,-6.12 -73.19,-18.87 -92.92,-38.26 l -1.15,-8.51 c 27.63,13 61.18,21.65 96.68,25.93"
           style="fill:#f9b32f;fill-opacity:1;fill-rule:nonzero;stroke:none;stroke-width:0.1"
           id="path379" />
        <path
           d="m 1043.19,1287.86 c -22.41,-27.13 -63.96,-27.15 -86.36,-0.02 -61.09,-6.49 -159.98,-39.09 -205.86,-80.64 115.17,60.01 382.77,60.03 498,0.03 -45.87,41.51 -144.73,74.15 -205.78,80.63"
           style="fill:#c835f8;fill-opacity:1;fill-rule:nonzero;stroke:none;stroke-width:0.1"
           id="path381" />
        <path
           d="m 1055.86,1327.01 c 0.45,-7.16 -0.47,-14.23 -2.61,-20.84 35.5,-4.28 69.05,-12.93 96.68,-25.93 l -1.15,8.51 c -19.73,19.39 -54.03,32.14 -92.92,38.26"
           style="fill:#f9b32f;fill-opacity:1;fill-rule:nonzero;stroke:none;stroke-width:0.1"
           id="path383" />
        <path
           d="m 1000,1379.43 c 23.27,0 43.63,-14.28 52,-35.22 29.55,-3.98 57.01,-11.43 78.69,-22.36 -3.91,254.29 -201.26,347.5 -258.36,145.92 21.77,31.82 76.08,65.57 111.51,41.28 -27.32,3.88 -50.18,-5.3 -69.04,-20.2 l 0.48,-0.24 c -23.98,-47.2 -34.57,-104.81 -36.65,-162.43 19.99,8.6 43.9,14.6 69.37,18.03 8.36,20.94 28.74,35.22 52,35.22 v 0"
           style="fill:#c835f8;fill-opacity:1;fill-rule:nonzero;stroke:none;stroke-width:0.1"
           id="path385" />
        <path
           d="m 1108.47,1201.75 c 0,0 -20.88,14.04 -49.72,5.32 -9.87,-2.99 -11.1,12.38 -0.59,14.82 17.99,4.19 40.44,-4.02 50.31,-20.14 v 0"
           style="fill:#300c50;fill-opacity:1;fill-rule:nonzero;stroke:none;stroke-width:0.1"
           id="path387" />
        <path
           d="m 891.53,1201.75 c 0,0 20.88,14.04 49.72,5.32 9.87,-2.99 11.1,12.38 0.59,14.82 -17.99,4.19 -40.44,-4.02 -50.31,-20.14"
           style="fill:#300c50;fill-opacity:1;fill-rule:nonzero;stroke:none;stroke-width:0.1"
           id="path389" />
        <path
           d="m 1109.05,1173.25 c -12.41,-30.22 -58.83,-37.18 -58.83,-4.74 0,35.74 45.76,17.81 58.83,4.74"
           style="fill:#300c50;fill-opacity:1;fill-rule:nonzero;stroke:none;stroke-width:0.1"
           id="path391" />
        <path
           d="m 1098.41,1171.07 c -4.45,3.03 -9.93,5.59 -14.29,7.15 -5.52,1.97 -16.22,4.7 -21.59,1.14 -3.35,-2.23 -3.89,-7.2 -3.89,-10.85 0,-3.91 0.87,-8.09 4.19,-10.54 5.17,-3.81 13.65,-2.38 19.16,-0.18 6.63,2.64 12.5,7.32 16.42,13.28 v 0"
           style="fill:#fdfefd;fill-opacity:1;fill-rule:nonzero;stroke:none;stroke-width:0.1"
           id="path393" />
        <path
           d="m 1074.61,1183.71 c 6.16,0 11.15,-6.88 11.15,-15.36 0,-8.48 -4.99,-15.36 -11.15,-15.36 -6.16,0 -11.15,6.88 -11.15,15.36 0,8.48 4.99,15.36 11.15,15.36"
           style="fill:#300c50;fill-opacity:1;fill-rule:nonzero;stroke:none;stroke-width:0.1"
           id="path395" />
        <path
           d="m 890.95,1173.25 c 12.41,-30.22 58.83,-37.18 58.83,-4.74 0,35.74 -45.76,17.81 -58.83,4.74"
           style="fill:#300c50;fill-opacity:1;fill-rule:nonzero;stroke:none;stroke-width:0.1"
           id="path397" />
        <path
           d="m 901.59,1171.07 c 4.45,3.03 9.93,5.59 14.29,7.15 5.52,1.97 16.22,4.7 21.59,1.14 3.35,-2.23 3.89,-7.2 3.89,-10.85 0,-3.91 -0.87,-8.09 -4.19,-10.54 -5.17,-3.81 -13.65,-2.38 -19.16,-0.18 -6.63,2.64 -12.5,7.32 -16.42,13.28 v 0"
           style="fill:#fdfefd;fill-opacity:1;fill-rule:nonzero;stroke:none;stroke-width:0.1"
           id="path399" />
        <path
           d="m 1070.78,861.22 c 0,0 4.11,-60.09 -70.78,-96.59 -74.89,36.5 -70.78,96.59 -70.78,96.59 -4.15,-14.24 -5.53,-30.73 -5.35,-47.7 4.3,-13.08 21.79,-55.25 76.13,-89.64 54.34,34.39 71.83,76.56 76.13,89.64 0.18,16.97 -1.2,33.46 -5.35,47.7"
           style="fill:#98a5b6;fill-opacity:1;fill-rule:nonzero;stroke:none;stroke-width:0.1"
           id="path401" />
        <path
           d="m 1070.78,861.22 c 15.1,-19.63 19.84,-54.27 18.58,-88.28 36.59,36.06 56.12,110.17 25.39,156.26 0,0 16.84,-68.4 -13.42,-114.63 0,0 -7.4,32.89 -30.55,46.65 v 0"
           style="fill:#98a5b6;fill-opacity:1;fill-rule:nonzero;stroke:none;stroke-width:0.1"
           id="path403" />
        <path
           d="m 1114.75,929.2 c 21.65,-9.57 32.18,-54.48 34.39,-82.6 33.81,55.05 10.32,137.78 5.9,151.97 0,0 11.74,-58.63 -2.52,-98.91 0,0 -9.75,19.63 -37.77,29.54"
           style="fill:#98a5b6;fill-opacity:1;fill-rule:nonzero;stroke:none;stroke-width:0.1"
           id="path405" />
        <path
           d="m 1120.12,1054.06 c 28.44,-54.67 80.73,-59.81 111.11,-54.35 -59.86,21.63 -84.57,96.92 -84.66,97.2 0,0 0.55,-42.43 34.98,-78.93 0,0 -34.75,5.87 -61.43,36.08 v 0"
           style="fill:#98a5b6;fill-opacity:1;fill-rule:nonzero;stroke:none;stroke-width:0.1"
           id="path407" />
        <path
           d="m 1199.71,1147.8 c 100.74,2.61 56.7,-77.31 56.7,-77.31 62.23,75.32 18.92,125.64 -97.12,149.99 3.06,-4.89 5.77,-10.05 8.05,-15.39 9.42,-0.6 17.49,-6.27 23.01,-14.28 7.89,-11.44 10.71,-26.6 9.36,-43.01 v 0"
           style="fill:#ab2fd4;fill-opacity:1;fill-rule:nonzero;stroke:none;stroke-width:0.1"
           id="path409" />
        <path
           d="m 1031.17,1089.98 c 0,0 9.4,-9.73 12.09,-22.49 0,0 -33.65,2.61 -43.26,18.43 5.83,-19.1 46.5,-27.18 59.03,-33.92 -7.89,24.89 -27.8,37.94 -27.86,37.98"
           style="fill:#98a5b6;fill-opacity:1;fill-rule:nonzero;stroke:none;stroke-width:0.1"
           id="path411" />
        <path
           d="m 1037.46,1088.61 c 17.26,-5.32 31.58,-22.92 39.58,-41.57 3.03,-2.79 8.53,-7.88 11.04,-10.63 -4.89,30.41 -20.94,47.14 -21,47.19 5.7,-9.4 7.23,-21.15 7.23,-21.15 -11.25,20.14 -36.85,26.16 -36.85,26.16 v 0"
           style="fill:#98a5b6;fill-opacity:1;fill-rule:nonzero;stroke:none;stroke-width:0.1"
           id="path413" />
        <path
           d="m 1067.08,1083.6 c 14.5,-7.38 24.63,-19.98 31.16,-34.64 -4.96,21.99 -17.98,36.71 -34.64,44.43 13.67,-6.47 20.78,-19.69 20.78,-19.69 -8.56,6.71 -17.3,9.9 -17.3,9.9"
           style="fill:#98a5b6;fill-opacity:1;fill-rule:nonzero;stroke:none;stroke-width:0.1"
           id="path415" />
        <path
           d="m 1051.31,1215.95 c 0.95,2.67 3.18,5.09 6.85,5.94 17.99,4.19 40.44,-4.02 50.31,-20.14 0,0 -20.88,14.04 -49.72,5.32 -2.81,-0.85 -4.92,-0.21 -6.26,1.19 0,0 4.36,-9.02 12.59,-9.02 0,0 36.73,8.21 52.35,-16.88 -1.8,20.02 -5.26,37.56 -7.18,46.32 -35.03,4.5 -72.64,6.75 -110.25,6.75 -37.61,0 -75.22,-2.25 -110.25,-6.75 -1.92,-8.76 -5.38,-26.3 -7.18,-46.32 15.62,25.09 52.35,16.88 52.35,16.88 8.23,0 12.59,9.02 12.59,9.02 -1.34,-1.4 -3.45,-2.04 -6.26,-1.19 -28.84,8.72 -49.72,-5.32 -49.72,-5.32 9.87,16.12 32.32,24.33 50.31,20.14 3.67,-0.85 5.9,-3.27 6.85,-5.94 15.8,7.71 86.82,7.71 102.62,0"
           style="fill:#f3825b;fill-opacity:1;fill-rule:nonzero;stroke:none;stroke-width:0.1"
           id="path417" />
        <path
           d="m 1036.19,1280.76 c 135.59,-14.15 212.78,-73.53 212.78,-73.53 -45.87,41.51 -144.73,74.15 -205.78,80.63 -2.17,-2.62 -4.51,-4.99 -7,-7.1"
           style="fill:#f98afe;fill-opacity:1;fill-rule:nonzero;stroke:none;stroke-width:0.1"
           id="path419" />
        <path
           d="m 929.22,861.22 c -15.1,-19.63 -19.84,-54.27 -18.58,-88.28 -36.59,36.06 -56.12,110.17 -25.39,156.26 0,0 -16.84,-68.4 13.42,-114.63 0,0 7.4,32.89 30.55,46.65 v 0"
           style="fill:#98a5b6;fill-opacity:1;fill-rule:nonzero;stroke:none;stroke-width:0.1"
           id="path421" />
        <path
           d="m 885.25,929.2 c -21.65,-9.57 -32.18,-54.48 -34.39,-82.6 -33.81,55.05 -10.32,137.78 -5.9,151.97 0,0 -11.74,-58.63 2.52,-98.91 0,0 9.75,19.63 37.77,29.54"
           style="fill:#98a5b6;fill-opacity:1;fill-rule:nonzero;stroke:none;stroke-width:0.1"
           id="path423" />
        <path
           d="m 879.88,1054.06 c -28.44,-54.67 -80.73,-59.81 -111.11,-54.35 59.86,21.63 84.57,96.92 84.66,97.2 0,0 -0.55,-42.43 -34.98,-78.93 0,0 34.75,5.87 61.43,36.08 v 0"
           style="fill:#98a5b6;fill-opacity:1;fill-rule:nonzero;stroke:none;stroke-width:0.1"
           id="path425" />
        <path
           d="m 800.29,1147.8 c -100.74,2.61 -56.7,-77.31 -56.7,-77.31 -62.23,75.32 -18.92,125.64 97.12,149.99 -3.06,-4.89 -5.77,-10.05 -8.05,-15.39 -9.42,-0.6 -17.49,-6.27 -23.01,-14.28 -7.89,-11.44 -10.71,-26.6 -9.36,-43.01 v 0"
           style="fill:#ab2fd4;fill-opacity:1;fill-rule:nonzero;stroke:none;stroke-width:0.1"
           id="path427" />
        <path
           d="m 968.83,1089.98 c 0,0 -9.4,-9.73 -12.09,-22.49 0,0 33.65,2.61 43.26,18.43 -5.83,-19.1 -46.5,-27.18 -59.03,-33.92 7.89,24.89 27.8,37.94 27.86,37.98 v 0"
           style="fill:#98a5b6;fill-opacity:1;fill-rule:nonzero;stroke:none;stroke-width:0.1"
           id="path429" />
        <path
           d="m 962.54,1088.61 c -17.26,-5.32 -31.58,-22.92 -39.58,-41.57 -3.03,-2.79 -8.53,-7.88 -11.04,-10.63 4.89,30.41 20.94,47.14 21,47.19 -5.7,-9.4 -7.23,-21.15 -7.23,-21.15 11.25,20.14 36.85,26.16 36.85,26.16 v 0"
           style="fill:#98a5b6;fill-opacity:1;fill-rule:nonzero;stroke:none;stroke-width:0.1"
           id="path431" />
        <path
           d="m 932.92,1083.6 c -14.5,-7.38 -24.63,-19.98 -31.16,-34.64 4.96,21.99 17.98,36.71 34.64,44.43 -13.67,-6.47 -20.78,-19.69 -20.78,-19.69 8.56,6.71 17.3,9.9 17.3,9.9"
           style="fill:#98a5b6;fill-opacity:1;fill-rule:nonzero;stroke:none;stroke-width:0.1"
           id="path433" />
        <path
           d="m 963.81,1280.76 c -135.59,-14.15 -212.78,-73.53 -212.78,-73.53 45.87,41.51 144.73,74.15 205.78,80.63 2.17,-2.62 4.51,-4.99 7,-7.1 v 0"
           style="fill:#f98afe;fill-opacity:1;fill-rule:nonzero;stroke:none;stroke-width:0.1"
           id="path435" />
        <path
           d="m 872.33,1467.77 c 3.48,5.09 7.79,10.22 12.72,15.16 46.55,120.31 151.5,106.72 209.67,1.38 -60.5,120.31 -180.03,132.99 -222.39,-16.54 v 0"
           style="fill:#f98afe;fill-opacity:1;fill-rule:nonzero;stroke:none;stroke-width:0.1"
           id="path437" />
        <path
           d="m 1127.39,1304.39 c 0,0 -3.87,-9.62 -72.37,8.73 -0.44,-2.36 -1.04,-4.68 -1.77,-6.95 35.5,-4.28 69.05,-12.93 96.68,-25.93 l -1.15,8.51 c -5.91,5.81 -13.13,11.02 -21.39,15.64"
           style="fill:#e67e22;fill-opacity:1;fill-rule:nonzero;stroke:none;stroke-width:0.1"
           id="path439" />
        <path
           d="m 1027.71,1305.74 c -23.42,-23.42 -62.8,-8.71 -66.6,22.71 -0.2,-1.62 -0.3,-3.28 -0.3,-4.99 0,-34.8 42.27,-52.33 66.9,-27.71 8.92,8.93 12.64,21.08 11.16,32.7 -1.06,-8.3 -4.78,-16.34 -11.16,-22.71"
           style="fill:#e67e22;fill-opacity:1;fill-rule:nonzero;stroke:none;stroke-width:0.1"
           id="path441" />
        <path
           d="m 872.61,1304.39 c 0,0 3.87,-9.62 72.37,8.73 0.44,-2.36 1.04,-4.68 1.77,-6.95 -35.5,-4.28 -69.05,-12.93 -96.68,-25.93 l 1.15,8.51 c 5.91,5.81 13.13,11.02 21.39,15.64 v 0"
           style="fill:#e67e22;fill-opacity:1;fill-rule:nonzero;stroke:none;stroke-width:0.1"
           id="path443" />
        <path
           d="m 925.39,1183.71 c 6.158,0 11.15,-6.88 11.15,-15.36 0,-8.48 -4.992,-15.36 -11.15,-15.36 -6.158,0 -11.15,6.88 -11.15,15.36 0,8.48 4.992,15.36 11.15,15.36"
           style="fill:#300c50;fill-opacity:1;fill-rule:nonzero;stroke:none;stroke-width:0.1"
           id="path445" />
        <path
           d="m 920.9,1182.79 c 2.96,0 5.36,-3.31 5.36,-7.39 0,-4.08 -2.4,-7.39 -5.36,-7.39 -2.96,0 -5.36,3.31 -5.36,7.39 0,4.08 2.4,7.39 5.36,7.39"
           style="fill:#fdfefd;fill-opacity:1;fill-rule:nonzero;stroke:none;stroke-width:0.1"
           id="path447" />
        <path
           d="m 929.63,1165.83 c 1.447,0 2.62,-1.61 2.62,-3.6 0,-1.99 -1.173,-3.6 -2.62,-3.6 -1.447,0 -2.62,1.61 -2.62,3.6 0,1.99 1.173,3.6 2.62,3.6"
           style="fill:#fdfefd;fill-opacity:1;fill-rule:nonzero;stroke:none;stroke-width:0.1"
           id="path449" />
        <path
           d="m 1070.13,1182.79 c 2.96,0 5.36,-3.31 5.36,-7.39 0,-4.08 -2.4,-7.39 -5.36,-7.39 -2.96,0 -5.36,3.31 -5.36,7.39 0,4.08 2.4,7.39 5.36,7.39"
           style="fill:#fdfefd;fill-opacity:1;fill-rule:nonzero;stroke:none;stroke-width:0.1"
           id="path451" />
        <path
           d="m 1078.85,1165.83 c 1.45,0 2.62,-1.61 2.62,-3.6 0,-1.99 -1.17,-3.6 -2.62,-3.6 -1.45,0 -2.62,1.61 -2.62,3.6 0,1.99 1.17,3.6 2.62,3.6"
           style="fill:#fdfefd;fill-opacity:1;fill-rule:nonzero;stroke:none;stroke-width:0.1"
           id="path453" />
        <path
           d="m 1117.01,1133.52 c -14.11,-49.48 -55.96,3.28 -101.94,-18.46 33.07,6.27 61.5,-4.8 79.96,-26.14 12.89,9.03 19.31,25.69 21.98,44.6 v 0"
           style="fill:#f3825b;fill-opacity:1;fill-rule:nonzero;stroke:none;stroke-width:0.1"
           id="path455" />
        <path
           d="m 882.99,1133.52 c 14.11,-49.48 55.96,3.28 101.94,-18.46 -33.07,6.27 -61.5,-4.8 -79.96,-26.14 -12.89,9.03 -19.31,25.69 -21.98,44.6 v 0"
           style="fill:#f3825b;fill-opacity:1;fill-rule:nonzero;stroke:none;stroke-width:0.1"
           id="path457" />
        <path
           d="m 1162.06,1137.43 c -2.04,24.79 21.02,12.46 21.02,12.46 0.91,12.24 -1,23.44 -6.49,31.42 -0.91,1.31 -1.88,2.46 -2.89,3.42 1.68,-8.38 2.25,-16.99 1.47,-25.6 -0.03,0.03 -9.95,19.27 -32.89,31.38 3.14,-18.95 10.34,-37.17 19.78,-53.08"
           style="fill:#f3825b;fill-opacity:1;fill-rule:nonzero;stroke:none;stroke-width:0.1"
           id="path459" />
        <path
           d="m 837.94,1137.43 c 2.04,24.79 -21.02,12.46 -21.02,12.46 -0.91,12.24 1,23.44 6.49,31.42 0.91,1.31 1.88,2.46 2.89,3.42 -1.68,-8.38 -2.25,-16.99 -1.47,-25.6 0.03,0.03 9.95,19.27 32.89,31.38 -3.14,-18.95 -10.34,-37.17 -19.78,-53.08"
           style="fill:#f3825b;fill-opacity:1;fill-rule:nonzero;stroke:none;stroke-width:0.1"
           id="path461" />
      </g>
    </g>
    <ellipse
       style="fill:#ff0000;fill-opacity:0.819608;stroke-width:2.83465"
       id="path1429"
       cx="-1452.7753"
       cy="96.445511"
       transform="scale(1,-1)"
       rx="272.63879"
       ry="441.13879" />
    <g
       id="g3611"
       inkscape:export-filename="..\favicon.png"
       inkscape:export-xdpi="10.248636"
       inkscape:export-ydpi="10.248636">
      <circle
         style="fill:#ff926b;fill-opacity:1;stroke-width:3.1284"
         id="circle2559"
         cx="3086.6604"
         cy="58.422607"
         r="414.80038"
         transform="scale(1,-1)" />
      <g
         id="g3396"
         transform="matrix(1.0900829,0,0,1.0900829,-2776.4873,-372.7659)">
        <text
           xml:space="preserve"
           style="font-weight:bold;font-size:708.661px;font-family:Chatkids;-inkscape-font-specification:'Chatkids Bold';fill:#ffffff;fill-opacity:1;stroke-width:2.83465;filter:url(#filter3388)"
           x="5101.4258"
           y="-35.043381"
           id="text3386"
           transform="scale(1,-1)"><tspan
             sodipodi:role="line"
             id="tspan3384"
             style="font-size:708.661px;fill:#ffffff;fill-opacity:1;stroke-width:2.83465"
             x="5101.4258"
             y="-35.043381">W</tspan></text>
        <text
           xml:space="preserve"
           style="font-weight:bold;font-size:708.661px;font-family:Chatkids;-inkscape-font-specification:'Chatkids Bold';fill:#300c50;fill-opacity:1;stroke-width:2.83465"
           x="5124.7949"
           y="-7.7794991"
           id="text1591"
           transform="scale(1,-1)"><tspan
             sodipodi:role="line"
             id="tspan1589"
             style="font-size:708.661px;fill:#300c50;fill-opacity:1;stroke-width:2.83465"
             x="5124.7949"
             y="-7.7794991">W</tspan></text>
      </g>
    </g>
  </g>
</svg>
